<svg width="33" height="32" viewBox="0 0 33 32" fill="none" xmlns="http://www.w3.org/2000/svg">
<g clip-path="url(#clip0_56_2423)">
<rect x="0.75" width="32" height="32" rx="16" fill="#E5E7EB"/>
<path d="M32.75 27.9923V32.0017H0.75V28.007C2.61127 25.5196 5.02721 23.5008 7.80572 22.1111C10.5842 20.7213 13.6487 19.9991 16.7553 20.0017C23.294 20.0017 29.102 23.1403 32.75 27.9923ZM22.086 12.0003C22.086 13.4148 21.5241 14.7714 20.5239 15.7716C19.5237 16.7718 18.1672 17.3337 16.7527 17.3337C15.3382 17.3337 13.9816 16.7718 12.9814 15.7716C11.9812 14.7714 11.4193 13.4148 11.4193 12.0003C11.4193 10.5858 11.9812 9.22928 12.9814 8.22909C13.9816 7.2289 15.3382 6.66699 16.7527 6.66699C18.1672 6.66699 19.5237 7.2289 20.5239 8.22909C21.5241 9.22928 22.086 10.5858 22.086 12.0003Z" fill="#D1D5DB"/>
</g>
<defs>
<clipPath id="clip0_56_2423">
<rect x="0.75" width="32" height="32" rx="16" fill="white"/>
</clipPath>
</defs>
</svg>
