<svg width="805" height="781" viewBox="0 0 805 781" fill="none" xmlns="http://www.w3.org/2000/svg">
<path d="M0 0H801C803.209 0 805 1.79086 805 4V777C805 779.209 803.209 781 801 781H0V0Z" fill="white"/>
<path d="M236.608 293.4C272.95 288.976 298.826 255.928 294.402 219.585C289.978 183.243 256.931 157.367 220.588 161.791C184.245 166.215 158.37 199.262 162.794 235.605C167.217 271.948 200.265 297.823 236.608 293.4Z" fill="#EBEBEB"/>
<path d="M264.389 263.387C284.154 243.623 284.154 211.578 264.389 191.814C244.625 172.049 212.58 172.049 192.816 191.814C173.052 211.578 173.052 243.623 192.816 263.387C212.58 283.152 244.625 283.152 264.389 263.387Z" fill="white"/>
<path d="M228.596 263.768C248.568 263.768 264.758 247.578 264.758 227.606C264.758 207.635 248.568 191.444 228.596 191.444C208.624 191.444 192.434 207.635 192.434 227.606C192.434 247.578 208.624 263.768 228.596 263.768Z" fill="#EBEBEB"/>
<path d="M233.238 247.041C243.98 244.488 250.618 233.71 248.065 222.968C245.512 212.226 234.734 205.588 223.992 208.141C213.25 210.694 206.611 221.472 209.164 232.214C211.718 242.956 222.495 249.594 233.238 247.041Z" fill="white"/>
<path d="M219.566 227.606C219.569 229.392 220.101 231.136 221.095 232.619C222.089 234.103 223.5 235.258 225.15 235.939C226.801 236.62 228.616 236.797 230.367 236.447C232.117 236.097 233.725 235.236 234.987 233.973C236.248 232.709 237.107 231.1 237.454 229.349C237.801 227.598 237.622 225.783 236.938 224.134C236.254 222.484 235.096 221.075 233.612 220.083C232.127 219.092 230.382 218.563 228.596 218.563C227.409 218.562 226.234 218.797 225.138 219.251C224.041 219.706 223.045 220.372 222.206 221.212C221.368 222.052 220.703 223.049 220.25 224.147C219.797 225.244 219.565 226.419 219.566 227.606Z" fill="#EBEBEB"/>
<path d="M138.065 135.001L136.006 137.061L221.676 222.731L223.735 220.672L138.065 135.001Z" fill="#A6A6A6"/>
<path d="M217.396 224.596L228.596 227.606L225.6 216.406L217.396 224.596Z" fill="#A6A6A6"/>
<path d="M122.7 130.46L138.758 146.518L151.358 150.368L147.508 137.768L131.45 121.696L135.3 134.296L122.7 130.46Z" fill="#A6A6A6"/>
<path d="M525.298 118.546L529.946 125.476L537.982 127.758L532.83 134.31L533.138 142.654L525.298 139.784L517.472 142.654L517.78 134.31L512.628 127.758L520.65 125.476L525.298 118.546Z" fill="#EBEBEB"/>
<path d="M561.138 118.546L565.786 125.476L573.808 127.758L568.656 134.31L568.964 142.654L561.138 139.784L553.312 142.654L553.62 134.31L548.468 127.758L556.49 125.476L561.138 118.546Z" fill="#EBEBEB"/>
<path d="M596.964 118.546L601.612 125.476L609.634 127.758L604.482 134.31L604.804 142.654L596.964 139.784L589.138 142.654L589.446 134.31L584.294 127.758L592.316 125.476L596.964 118.546Z" fill="#EBEBEB"/>
<path d="M632.804 118.546L637.452 125.476L645.474 127.758L640.322 134.31L640.63 142.654L632.804 139.784L624.964 142.654L625.286 134.31L620.134 127.758L628.156 125.476L632.804 118.546Z" fill="#EBEBEB"/>
<path d="M660.062 143.662L660.412 134.548L654.812 127.366L663.591 124.874L668.673 117.286L673.769 124.874L682.547 127.366L676.947 134.548L677.283 143.662L668.715 140.526L660.062 143.662ZM668.631 139L675.729 141.604L675.449 134.058L680.111 128.108L672.845 126.05L668.645 119.778L664.445 126.05L657.179 128.108L661.841 134.058L661.561 141.604L668.631 139Z" fill="#EBEBEB"/>
<path d="M668.63 139.784V118.546L663.982 125.476L655.96 127.758L661.112 134.31L660.804 142.654L668.63 139.784Z" fill="#EBEBEB"/>
<path fill-rule="evenodd" clip-rule="evenodd" d="M623.886 411.146C622.108 410.04 620.554 408.43 618.188 408.668C617.278 408.766 617.474 408.01 617.474 407.506C617.474 398.584 617.437 389.67 617.362 380.766C617.362 380.122 617.362 379.576 618.104 379.226C624.908 375.768 627.834 369.006 631.992 363.21C634.118 360.334 635.645 357.06 636.482 353.583C637.319 350.105 637.449 346.495 636.864 342.966C636.57 340.964 637.494 340.054 639.3 339.648C641.484 339.144 643.654 339.732 644.396 341.23C646.371 344.862 647.702 348.807 648.33 352.892C648.736 356.28 647.532 359.57 647.126 362.916C646.818 365.366 646.258 367.788 645.796 370.266C646.398 370.7 647.084 370.476 647.728 370.49H670.324C673.502 370.49 675.056 371.386 675.504 373.486C675.751 374.781 675.568 376.122 674.981 377.302C674.395 378.483 673.438 379.439 672.256 380.024C671.682 380.318 670.674 380.024 670.604 380.948C670.534 381.872 671.584 381.746 672.102 382.11C674.902 383.972 674.342 387.822 671.206 390.076C670.436 390.608 668.966 390.356 668.938 391.476C668.938 392.358 670.338 392.344 670.926 392.974C673.138 395.144 672.06 399.204 668.77 400.856C668.32 400.997 667.88 401.171 667.454 401.374C667.076 401.626 666.712 401.906 667.454 402.424C670.716 404.734 670.66 408.024 667.384 410.362L666.404 411.062C665.218 411.786 663.824 412.097 662.442 411.944C650.626 412.01 638.815 412.052 627.008 412.07C626.453 412.132 625.89 412.082 625.354 411.923C624.818 411.765 624.319 411.501 623.886 411.146Z" fill="#EBEBEB"/>
<path fill-rule="evenodd" clip-rule="evenodd" d="M590.244 395.536C590.244 389.936 590.244 384.21 590.16 378.54C590.16 377.392 590.272 376.818 591.686 376.832C598.602 376.907 605.509 376.907 612.406 376.832C613.806 376.832 613.974 377.28 613.974 378.484C613.974 389.88 614.011 401.276 614.086 412.672C614.086 414.072 613.708 414.534 612.252 414.52C605.56 414.52 598.854 414.52 592.148 414.604C590.482 414.604 590.258 414.044 590.272 412.588C590.328 406.862 590.258 401.206 590.244 395.536Z" fill="#EBEBEB"/>
<path d="M328.794 666.716H145.394C144.421 666.716 143.488 666.33 142.8 665.642C142.112 664.954 141.726 664.021 141.726 663.048V641.194C141.726 641.124 141.726 641.054 141.726 640.984C141.726 640.914 141.726 640.732 141.726 640.592L164 559.182L135.286 381.2L125.696 377.868C124.857 377.523 124.176 376.88 123.784 376.062C123.392 375.245 123.316 374.311 123.572 373.441C123.828 372.571 124.397 371.827 125.169 371.352C125.941 370.876 126.862 370.704 127.754 370.868L139.584 374.858C140.254 375.054 140.854 375.437 141.313 375.963C141.772 376.489 142.071 377.136 142.174 377.826L171.35 558.706C171.427 559.113 171.427 559.531 171.35 559.938L149.818 637.946L320.618 650.084C321.566 650.15 322.452 650.576 323.096 651.274L331.496 660.598C331.969 661.125 332.279 661.776 332.389 662.475C332.5 663.174 332.406 663.89 332.119 664.536C331.832 665.183 331.364 665.733 330.771 666.12C330.179 666.506 329.487 666.713 328.78 666.716H328.794ZM149.104 659.394H320.534L318.644 657.294L149.104 645.24V659.394Z" fill="#C7C7C7"/>
<path d="M395.924 439.034H148.768C148.268 439.065 147.767 438.993 147.296 438.823C146.825 438.653 146.394 438.389 146.029 438.046C145.664 437.703 145.374 437.289 145.175 436.829C144.976 436.369 144.874 435.874 144.874 435.373C144.874 434.872 144.976 434.377 145.175 433.917C145.374 433.458 145.664 433.044 146.029 432.701C146.394 432.358 146.825 432.093 147.296 431.923C147.767 431.753 148.268 431.681 148.768 431.712H395.924C396.424 431.681 396.925 431.753 397.396 431.923C397.867 432.093 398.298 432.358 398.663 432.701C399.028 433.044 399.318 433.458 399.517 433.917C399.716 434.377 399.819 434.872 399.819 435.373C399.819 435.874 399.716 436.369 399.517 436.829C399.318 437.289 399.028 437.703 398.663 438.046C398.298 438.389 397.867 438.653 397.396 438.823C396.925 438.993 396.424 439.065 395.924 439.034Z" fill="#C7C7C7"/>
<path d="M167.724 560.484C167.422 560.452 167.142 560.309 166.939 560.083C166.736 559.857 166.624 559.563 166.624 559.259C166.624 558.955 166.736 558.662 166.939 558.436C167.142 558.21 167.422 558.067 167.724 558.034L353.392 548.108L389.946 435.002C389.996 434.849 390.075 434.708 390.179 434.585C390.283 434.463 390.41 434.363 390.553 434.29C390.696 434.217 390.853 434.173 391.013 434.161C391.173 434.149 391.334 434.168 391.486 434.218C391.639 434.273 391.779 434.357 391.898 434.467C392.018 434.577 392.113 434.709 392.18 434.857C392.247 435.005 392.283 435.165 392.286 435.327C392.29 435.489 392.261 435.65 392.2 435.8L355.38 549.704C355.307 549.941 355.163 550.149 354.968 550.302C354.773 550.454 354.536 550.544 354.288 550.558L167.794 560.47L167.724 560.484Z" fill="#C7C7C7"/>
<path d="M357.424 540.295H164.336C164.013 540.295 163.703 540.167 163.475 539.939C163.246 539.71 163.118 539.4 163.118 539.077C163.118 538.754 163.246 538.445 163.475 538.216C163.703 537.988 164.013 537.859 164.336 537.859H357.424C357.747 537.859 358.057 537.988 358.285 538.216C358.514 538.445 358.642 538.754 358.642 539.077C358.642 539.4 358.514 539.71 358.285 539.939C358.057 540.167 357.747 540.295 357.424 540.295Z" fill="#C7C7C7"/>
<path d="M362.338 525.4H162.054C161.731 525.4 161.422 525.272 161.193 525.043C160.965 524.815 160.836 524.505 160.836 524.182C160.836 523.859 160.965 523.549 161.193 523.321C161.422 523.092 161.731 522.964 162.054 522.964H362.338C362.661 522.964 362.971 523.092 363.2 523.321C363.428 523.549 363.556 523.859 363.556 524.182C363.556 524.505 363.428 524.815 363.2 525.043C362.971 525.272 362.661 525.4 362.338 525.4Z" fill="#C7C7C7"/>
<path d="M366.874 510.602H159.8C159.498 510.569 159.218 510.426 159.015 510.2C158.812 509.974 158.699 509.681 158.699 509.377C158.699 509.072 158.812 508.779 159.015 508.553C159.218 508.327 159.498 508.184 159.8 508.152H366.874C367.046 508.133 367.22 508.151 367.384 508.204C367.549 508.257 367.7 508.345 367.829 508.46C367.957 508.576 368.06 508.717 368.13 508.875C368.201 509.033 368.237 509.204 368.237 509.377C368.237 509.549 368.201 509.72 368.13 509.878C368.06 510.036 367.957 510.177 367.829 510.293C367.7 510.408 367.549 510.496 367.384 510.549C367.22 510.602 367.046 510.62 366.874 510.602Z" fill="#C7C7C7"/>
<path d="M371.802 495.748H157.518C157.347 495.766 157.173 495.748 157.008 495.695C156.844 495.642 156.692 495.555 156.564 495.439C156.435 495.324 156.332 495.183 156.262 495.025C156.192 494.867 156.155 494.696 156.155 494.523C156.155 494.35 156.192 494.179 156.262 494.021C156.332 493.863 156.435 493.722 156.564 493.607C156.692 493.491 156.844 493.404 157.008 493.351C157.173 493.298 157.347 493.28 157.518 493.298H371.802C372.105 493.33 372.384 493.473 372.588 493.7C372.791 493.926 372.903 494.219 372.903 494.523C372.903 494.827 372.791 495.12 372.588 495.346C372.384 495.573 372.105 495.716 371.802 495.748Z" fill="#C7C7C7"/>
<path d="M376.492 480.894H155.292C154.969 480.894 154.659 480.766 154.431 480.537C154.203 480.309 154.074 479.999 154.074 479.676C154.074 479.353 154.203 479.043 154.431 478.815C154.659 478.586 154.969 478.458 155.292 478.458H376.492C376.815 478.458 377.125 478.586 377.353 478.815C377.582 479.043 377.71 479.353 377.71 479.676C377.71 479.999 377.582 480.309 377.353 480.537C377.125 480.766 376.815 480.894 376.492 480.894Z" fill="#C7C7C7"/>
<path d="M381.532 466.04H152.968C152.645 466.04 152.335 465.911 152.107 465.683C151.878 465.454 151.75 465.145 151.75 464.822C151.75 464.499 151.878 464.189 152.107 463.96C152.335 463.732 152.645 463.604 152.968 463.604H381.532C381.855 463.604 382.165 463.732 382.393 463.96C382.622 464.189 382.75 464.499 382.75 464.822C382.75 465.145 382.622 465.454 382.393 465.683C382.165 465.911 381.855 466.04 381.532 466.04Z" fill="#C7C7C7"/>
<path d="M386.334 451.2H150.7C150.377 451.2 150.068 451.071 149.839 450.843C149.611 450.614 149.482 450.305 149.482 449.982C149.482 449.659 149.611 449.349 149.839 449.12C150.068 448.892 150.377 448.764 150.7 448.764H386.334C386.657 448.764 386.967 448.892 387.196 449.12C387.424 449.349 387.552 449.659 387.552 449.982C387.552 450.305 387.424 450.614 387.196 450.843C386.967 451.071 386.657 451.2 386.334 451.2Z" fill="#C7C7C7"/>
<path d="M184.398 559C184.089 559 183.791 558.884 183.565 558.673C183.339 558.462 183.201 558.174 183.18 557.866L173.8 435.464C173.787 435.304 173.805 435.144 173.855 434.992C173.904 434.84 173.983 434.699 174.087 434.578C174.191 434.457 174.319 434.357 174.462 434.286C174.605 434.214 174.761 434.172 174.92 434.162C175.242 434.142 175.558 434.247 175.804 434.456C176.049 434.665 176.204 434.961 176.236 435.282L185.616 557.6C185.639 557.92 185.535 558.238 185.325 558.482C185.115 558.725 184.817 558.876 184.496 558.902L184.398 559Z" fill="#C7C7C7"/>
<path d="M335.78 550.95C335.678 550.964 335.574 550.964 335.472 550.95C335.159 550.865 334.893 550.659 334.73 550.379C334.568 550.099 334.523 549.766 334.604 549.452L365.698 435.1C365.783 434.787 365.988 434.521 366.269 434.358C366.549 434.196 366.882 434.15 367.196 434.232C367.35 434.274 367.495 434.346 367.622 434.444C367.748 434.542 367.854 434.665 367.934 434.804C368.013 434.943 368.064 435.096 368.084 435.255C368.104 435.414 368.092 435.575 368.05 435.73L336.97 550.082C336.89 550.334 336.731 550.554 336.517 550.711C336.303 550.867 336.045 550.95 335.78 550.95Z" fill="#C7C7C7"/>
<path d="M203.9 558.019C203.581 558.016 203.275 557.888 203.048 557.664C202.821 557.439 202.69 557.135 202.682 556.815L199.658 435.407C199.654 435.084 199.776 434.772 199.998 434.537C200.22 434.302 200.525 434.162 200.848 434.147C201.168 434.147 201.475 434.271 201.705 434.493C201.935 434.715 202.069 435.018 202.08 435.337L205.09 556.759C205.098 557.084 204.977 557.398 204.754 557.634C204.531 557.87 204.225 558.008 203.9 558.019Z" fill="#C7C7C7"/>
<path d="M223.92 556.927C223.76 556.924 223.603 556.889 223.456 556.824C223.31 556.759 223.178 556.667 223.067 556.551C222.957 556.435 222.87 556.299 222.812 556.15C222.754 556.001 222.727 555.841 222.73 555.681L224.97 435.351C224.978 435.032 225.109 434.728 225.336 434.503C225.563 434.279 225.869 434.151 226.188 434.147C226.348 434.151 226.506 434.186 226.652 434.251C226.799 434.315 226.931 434.408 227.041 434.524C227.152 434.64 227.239 434.776 227.296 434.925C227.354 435.074 227.382 435.233 227.378 435.393L225.138 555.793C225.117 556.102 224.979 556.39 224.753 556.601C224.527 556.811 224.229 556.928 223.92 556.927Z" fill="#C7C7C7"/>
<path d="M314.472 551.901H314.234C313.923 551.84 313.649 551.659 313.471 551.397C313.292 551.135 313.225 550.813 313.282 550.501L336.9 435.197C336.971 434.892 337.154 434.624 337.414 434.447C337.673 434.271 337.99 434.199 338.3 434.245C338.609 434.31 338.882 434.492 339.059 434.753C339.237 435.014 339.306 435.334 339.252 435.645L315.634 550.949C315.573 551.214 315.425 551.451 315.215 551.623C315.005 551.795 314.744 551.893 314.472 551.901Z" fill="#C7C7C7"/>
<path d="M290.196 553.4H290C289.682 553.345 289.399 553.168 289.21 552.906C289.022 552.644 288.943 552.319 288.992 552L308.116 435.24C308.171 434.923 308.349 434.641 308.611 434.454C308.874 434.268 309.199 434.193 309.516 434.246C309.674 434.271 309.825 434.328 309.961 434.412C310.097 434.497 310.214 434.607 310.307 434.738C310.399 434.868 310.465 435.015 310.5 435.171C310.535 435.327 310.538 435.489 310.51 435.646L291.4 552.336C291.36 552.628 291.216 552.896 290.995 553.091C290.775 553.286 290.491 553.396 290.196 553.4Z" fill="#C7C7C7"/>
<path d="M244.416 555.766H244.318C244.159 555.755 244.003 555.713 243.86 555.641C243.717 555.57 243.589 555.471 243.485 555.35C243.381 555.228 243.302 555.088 243.252 554.936C243.203 554.783 243.185 554.623 243.198 554.464L252.116 435.282C252.14 434.959 252.292 434.658 252.537 434.447C252.783 434.236 253.102 434.131 253.425 434.155C253.748 434.179 254.048 434.33 254.26 434.576C254.471 434.821 254.576 435.141 254.552 435.464L245.634 554.646C245.606 554.95 245.466 555.234 245.241 555.441C245.016 555.648 244.722 555.764 244.416 555.766Z" fill="#C7C7C7"/>
<path d="M268.426 554.212H268.286C268.122 554.193 267.964 554.142 267.821 554.061C267.677 553.98 267.552 553.871 267.451 553.74C267.351 553.61 267.277 553.46 267.236 553.301C267.194 553.141 267.184 552.975 267.208 552.812L280.284 435.212C280.301 435.053 280.35 434.899 280.427 434.759C280.504 434.619 280.608 434.495 280.733 434.395C280.858 434.295 281.001 434.22 281.154 434.176C281.308 434.131 281.469 434.117 281.628 434.134C281.787 434.152 281.941 434.2 282.081 434.277C282.222 434.354 282.345 434.458 282.445 434.583C282.545 434.708 282.62 434.851 282.665 435.005C282.709 435.158 282.723 435.319 282.706 435.478L269.63 553.078C269.609 553.384 269.473 553.671 269.25 553.881C269.027 554.091 268.733 554.209 268.426 554.212Z" fill="#C7C7C7"/>
<path d="M169.194 685.784C176.748 685.784 182.872 679.66 182.872 672.106C182.872 664.552 176.748 658.428 169.194 658.428C161.64 658.428 155.516 664.552 155.516 672.106C155.516 679.66 161.64 685.784 169.194 685.784Z" fill="#263238"/>
<path d="M175.41 672.106C175.41 673.335 175.045 674.537 174.362 675.559C173.679 676.581 172.709 677.378 171.573 677.848C170.437 678.319 169.187 678.442 167.981 678.202C166.776 677.962 165.668 677.37 164.799 676.501C163.929 675.632 163.337 674.524 163.097 673.318C162.858 672.113 162.981 670.863 163.451 669.727C163.922 668.591 164.718 667.62 165.741 666.937C166.763 666.254 167.965 665.89 169.194 665.89C170.843 665.89 172.424 666.545 173.589 667.71C174.755 668.876 175.41 670.457 175.41 672.106Z" fill="#EBEBEB"/>
<path d="M291.596 685.784C299.15 685.784 305.274 679.66 305.274 672.106C305.274 664.552 299.15 658.428 291.596 658.428C284.042 658.428 277.918 664.552 277.918 672.106C277.918 679.66 284.042 685.784 291.596 685.784Z" fill="#263238"/>
<path d="M297.812 672.106C297.812 673.335 297.448 674.537 296.765 675.559C296.082 676.581 295.111 677.378 293.975 677.848C292.839 678.319 291.589 678.442 290.384 678.202C289.178 677.962 288.07 677.37 287.201 676.501C286.332 675.632 285.74 674.524 285.5 673.318C285.26 672.113 285.383 670.863 285.854 669.727C286.324 668.591 287.121 667.62 288.143 666.937C289.165 666.254 290.367 665.89 291.596 665.89C293.245 665.89 294.826 666.545 295.992 667.71C297.157 668.876 297.812 670.457 297.812 672.106Z" fill="#EBEBEB"/>
<path d="M135.846 381.942C135.34 381.943 134.837 381.853 134.362 381.676L115.098 374.368C114.582 374.172 114.11 373.877 113.709 373.498C113.307 373.12 112.984 372.666 112.758 372.163C112.532 371.66 112.407 371.117 112.391 370.566C112.374 370.015 112.466 369.465 112.662 368.95C112.858 368.434 113.153 367.962 113.532 367.56C113.91 367.159 114.364 366.836 114.867 366.61C115.37 366.383 115.913 366.259 116.464 366.242C117.015 366.226 117.564 366.318 118.08 366.514L137.4 373.822C138.315 374.174 139.078 374.834 139.557 375.689C140.036 376.544 140.2 377.54 140.023 378.504C139.845 379.468 139.336 380.339 138.583 380.967C137.831 381.595 136.882 381.939 135.902 381.942H135.846Z" fill="#00693D"/>
<path d="M120.012 685.784C300.612 684.93 503.332 684.916 683.988 685.784C503.388 686.652 300.668 686.638 120.012 685.784Z" fill="#263238"/>
<path d="M520.328 149.794H283.644C280.471 149.823 277.334 150.477 274.414 151.719C271.493 152.96 268.846 154.765 266.623 157.03C264.4 159.294 262.645 161.975 261.458 164.918C260.27 167.861 259.675 171.009 259.704 174.182V661.382C259.648 667.79 262.138 673.958 266.627 678.53C271.116 683.103 277.237 685.707 283.644 685.77H520.328C526.738 685.707 532.862 683.104 537.355 678.532C541.848 673.96 544.345 667.792 544.296 661.382V174.182C544.348 167.771 541.853 161.601 537.359 157.028C532.865 152.455 526.739 149.853 520.328 149.794ZM529.316 646.332C529.316 659.156 519.712 669.53 507.868 669.53H296.132C284.26 669.53 274.656 659.156 274.656 646.332V192.648C274.656 166.524 284.26 165.25 296.132 165.25H338.552C341.016 165.25 343.032 168.05 343.032 171.522V173.02C343.032 181.154 347.484 181.182 352.944 181.182H451C456.516 181.182 460.94 181.182 460.94 173.02V171.522C460.94 168.05 462.928 165.25 465.434 165.25H507.84C519.684 165.25 529.288 168.722 529.288 192.648L529.316 646.332Z" fill="#263238"/>
<path d="M529.4 193.055V646.739C529.4 659.563 519.796 669.937 507.952 669.937H296.146C284.274 669.937 274.67 659.563 274.67 646.739V193.055C274.67 167.001 284.274 165.601 296.146 165.601H338.566C341.03 165.601 343.046 168.401 343.046 171.873V173.371C343.046 181.505 347.498 181.533 352.958 181.533H451C456.516 181.533 460.94 181.533 460.94 173.371V171.929C460.94 168.457 462.928 165.657 465.434 165.657H507.84C519.726 165.601 529.4 169.129 529.4 193.055Z" fill="white"/>
<path d="M415.37 171.018H388.616C388.178 171.018 387.758 170.844 387.448 170.534C387.138 170.224 386.964 169.804 386.964 169.366C386.964 168.928 387.138 168.508 387.448 168.198C387.758 167.888 388.178 167.714 388.616 167.714H415.37C415.808 167.714 416.229 167.888 416.539 168.198C416.848 168.508 417.022 168.928 417.022 169.366C417.022 169.804 416.848 170.224 416.539 170.534C416.229 170.844 415.808 171.018 415.37 171.018Z" fill="white"/>
<path d="M331.23 175.401L330.824 175.807L330.586 176.045C329.537 175.002 328.118 174.416 326.638 174.416C325.159 174.416 323.739 175.002 322.69 176.045C322.608 175.972 322.533 175.893 322.466 175.807C322.326 175.681 322.2 175.541 322.06 175.401C322.242 175.261 322.41 175.093 322.578 174.953C322.945 174.646 323.35 174.388 323.782 174.183C324.281 173.931 324.814 173.752 325.364 173.651L326.162 173.553H326.862H327.394C327.873 173.604 328.344 173.717 328.794 173.889C329.138 174.014 329.471 174.169 329.788 174.351C330.117 174.546 330.431 174.766 330.726 175.009L331.16 175.401H331.23Z" fill="#A6A6A6"/>
<path d="M323.978 177.375C323.768 177.151 323.558 176.941 323.334 176.731C323.766 176.296 324.28 175.951 324.845 175.716C325.411 175.481 326.018 175.359 326.631 175.359C327.244 175.359 327.851 175.481 328.416 175.716C328.982 175.951 329.496 176.296 329.928 176.731L329.284 177.375C328.58 176.672 327.626 176.276 326.631 176.276C325.636 176.276 324.682 176.672 323.978 177.375Z" fill="#A6A6A6"/>
<path d="M328.64 178.019L327.996 178.663C327.635 178.306 327.147 178.105 326.638 178.105C326.13 178.105 325.642 178.306 325.28 178.663C325.056 178.453 324.846 178.229 324.636 178.019C324.897 177.753 325.208 177.541 325.552 177.396C325.896 177.251 326.265 177.177 326.638 177.177C327.011 177.177 327.38 177.251 327.724 177.396C328.068 177.541 328.379 177.753 328.64 178.019Z" fill="#A6A6A6"/>
<path d="M327.212 179.251C327.212 179.403 327.152 179.549 327.044 179.657C326.937 179.765 326.791 179.825 326.638 179.825C326.562 179.827 326.486 179.813 326.414 179.785C326.343 179.757 326.278 179.715 326.223 179.662C326.169 179.609 326.125 179.545 326.095 179.474C326.066 179.403 326.05 179.328 326.05 179.251C326.05 179.095 326.112 178.946 326.223 178.835C326.333 178.725 326.482 178.663 326.638 178.663C326.715 178.663 326.791 178.678 326.861 178.708C326.932 178.738 326.996 178.781 327.049 178.836C327.103 178.891 327.145 178.956 327.173 179.027C327.201 179.098 327.214 179.175 327.212 179.251Z" fill="#A6A6A6"/>
<path d="M291.26 176.674C291.26 176.339 291.36 176.012 291.546 175.733C291.732 175.455 291.996 175.238 292.306 175.109C292.616 174.981 292.956 174.948 293.285 175.013C293.613 175.078 293.915 175.24 294.152 175.477C294.389 175.714 294.55 176.015 294.616 176.344C294.681 176.673 294.648 177.013 294.519 177.323C294.391 177.632 294.174 177.897 293.895 178.083C293.617 178.269 293.289 178.368 292.954 178.368C292.505 178.368 292.074 178.19 291.756 177.872C291.439 177.555 291.26 177.124 291.26 176.674Z" fill="#A6A6A6"/>
<path d="M296.58 176.674C296.58 176.339 296.679 176.012 296.866 175.733C297.052 175.455 297.316 175.238 297.626 175.109C297.935 174.981 298.276 174.948 298.605 175.013C298.933 175.078 299.235 175.24 299.472 175.477C299.709 175.714 299.87 176.015 299.936 176.344C300.001 176.673 299.967 177.013 299.839 177.323C299.711 177.632 299.494 177.897 299.215 178.083C298.937 178.269 298.609 178.368 298.274 178.368C298.052 178.368 297.831 178.325 297.626 178.24C297.42 178.154 297.234 178.03 297.076 177.872C296.919 177.715 296.794 177.528 296.709 177.323C296.624 177.117 296.58 176.897 296.58 176.674Z" fill="#A6A6A6"/>
<path d="M301.9 176.674C301.9 176.339 302 176.011 302.186 175.732C302.373 175.453 302.639 175.236 302.949 175.108C303.259 174.98 303.601 174.948 303.93 175.014C304.259 175.081 304.56 175.243 304.797 175.482C305.033 175.72 305.193 176.023 305.257 176.353C305.321 176.682 305.285 177.023 305.155 177.332C305.025 177.642 304.805 177.905 304.525 178.09C304.244 178.274 303.916 178.371 303.58 178.368C303.358 178.368 303.139 178.325 302.934 178.239C302.729 178.154 302.543 178.029 302.387 177.871C302.231 177.714 302.107 177.527 302.024 177.322C301.94 177.116 301.898 176.896 301.9 176.674Z" fill="#A6A6A6"/>
<path d="M307.22 176.674C307.22 176.339 307.32 176.011 307.507 175.732C307.694 175.453 307.959 175.236 308.269 175.108C308.58 174.98 308.921 174.948 309.25 175.014C309.579 175.081 309.881 175.243 310.117 175.482C310.353 175.72 310.514 176.023 310.577 176.353C310.641 176.682 310.606 177.023 310.475 177.332C310.345 177.642 310.126 177.905 309.845 178.09C309.565 178.274 309.236 178.371 308.9 178.368C308.678 178.368 308.459 178.325 308.254 178.239C308.049 178.154 307.864 178.029 307.707 177.871C307.551 177.714 307.428 177.527 307.344 177.322C307.261 177.116 307.218 176.896 307.22 176.674Z" fill="#A6A6A6"/>
<path d="M312.526 176.674C312.526 176.339 312.626 176.012 312.812 175.733C312.998 175.455 313.263 175.238 313.572 175.109C313.882 174.981 314.222 174.948 314.551 175.013C314.879 175.078 315.181 175.24 315.418 175.477C315.655 175.714 315.816 176.015 315.882 176.344C315.947 176.673 315.914 177.013 315.785 177.323C315.657 177.632 315.44 177.897 315.162 178.083C314.883 178.269 314.555 178.368 314.22 178.368C313.771 178.368 313.34 178.19 313.023 177.872C312.705 177.555 312.526 177.124 312.526 176.674Z" fill="#A6A6A6"/>
<path d="M510.22 180.37H496.472V174H510.22V180.37ZM497.172 179.67H509.52V174.7H497.2L497.172 179.67Z" fill="#A6A6A6"/>
<path d="M506.482 175.078H497.62V179.278H506.482V175.078Z" fill="#A6A6A6"/>
<path d="M511.438 175.484H510.22V178.886H511.438V175.484Z" fill="#A6A6A6"/>
<path d="M416.63 146.168H387.384V214.978H416.63V146.168Z" fill="#00693D"/>
<path d="M416.616 214.964C416.616 214.964 413.816 228.964 402 228.964C390.184 228.964 387.384 214.964 387.384 214.964H416.616Z" fill="#00693D"/>
<path opacity="0.1" d="M416.616 214.964C416.616 214.964 413.816 228.964 402 228.964C390.184 228.964 387.384 214.964 387.384 214.964H416.616Z" fill="black"/>
<path d="M387.37 214.978H358.124L361.106 146.168H387.37V214.978Z" fill="white"/>
<path d="M387.37 214.978L358.124 215.16H357.928C357.928 215.16 360.728 146.252 360.728 146.154V145.818H361.05H387.314H387.608C387.72 146.084 387.426 180.3 387.496 180.58L387.314 214.908L387.37 214.978ZM387.37 214.978L387.188 180.496L387.09 146.168L387.37 146.448L361.106 146.518L361.456 146.182C361.358 146.182 358.572 215.79 358.124 214.782L387.37 214.964V214.978Z" fill="#263238"/>
<path d="M387.384 214.964C387.384 214.964 384.584 228.964 372.74 228.964C360.896 228.964 358.124 214.964 358.124 214.964H387.384Z" fill="#EBEBEB"/>
<path d="M358.124 214.978H328.878L334.842 146.168H361.106L358.124 214.978Z" fill="#00693D"/>
<path d="M358.124 214.964C358.124 214.964 355.324 228.964 343.494 228.964C331.664 228.964 328.878 214.964 328.878 214.964H358.124Z" fill="#00693D"/>
<path opacity="0.1" d="M358.124 214.964C358.124 214.964 355.324 228.964 343.494 228.964C331.664 228.964 328.878 214.964 328.878 214.964H358.124Z" fill="black"/>
<path d="M328.864 214.978H299.618L308.578 146.168H334.842L328.864 214.978Z" fill="white"/>
<path d="M328.864 214.978L299.618 215.16H299.408C299.408 215.16 308.2 146.238 308.2 146.126V145.818H308.508H334.772H335.08V146.126L332 180.664L328.836 214.978H328.864ZM328.864 214.978L331.664 180.482L334.548 146.14L334.828 146.448L308.564 146.518L308.9 146.21C308.802 146.21 300.01 215.846 299.604 214.81L328.85 214.992L328.864 214.978Z" fill="#263238"/>
<path d="M328.864 214.964C328.864 214.964 326.064 228.964 314.234 228.964C302.404 228.964 299.618 214.964 299.618 214.964H328.864Z" fill="#EBEBEB"/>
<path d="M299.618 214.978H270.372L282.314 146.168H308.564L299.618 214.978Z" fill="#00693D"/>
<path d="M299.618 214.964C299.618 214.964 296.818 228.964 285.002 228.964C273.186 228.964 270.358 214.964 270.358 214.964H299.618Z" fill="#00693D"/>
<path opacity="0.1" d="M299.618 214.964C299.618 214.964 296.818 228.964 285.002 228.964C273.186 228.964 270.358 214.964 270.358 214.964H299.618Z" fill="black"/>
<path d="M270.4 214.979H241.112L254.174 154.779C255.252 149.809 260.544 146.183 266.774 146.183H282.3L270.4 214.979Z" fill="white"/>
<path d="M270.4 214.978L241.154 215.16H240.93V214.936C242.764 206.382 251.57 165.348 253.194 157.746C253.475 155.777 254.036 153.859 254.86 152.048C257.954 146.448 264.814 145.454 270.61 145.846H282.3H282.65L282.58 146.168L276.504 180.636L270.4 214.978ZM270.4 214.978L276.196 180.468L282.062 146.112L282.342 146.448H270.652C265.052 146.112 258.514 147.008 255.49 152.356C254.693 154.104 254.151 155.957 253.88 157.858L251.374 169.282L241.336 214.992L241.154 214.768L270.4 214.95V214.978Z" fill="#263238"/>
<path d="M270.4 214.964C270.4 214.964 267.6 228.964 255.784 228.964C243.968 228.964 241.168 214.964 241.168 214.964H270.4Z" fill="#EBEBEB"/>
<path d="M416.63 214.978H445.876L442.894 146.168H416.63V214.978Z" fill="white"/>
<path d="M416.63 214.979L445.876 214.797L445.694 214.979L442.6 146.183L442.95 146.519L416.686 146.449L416.966 146.169L416.868 180.497L416.686 214.979H416.63ZM416.63 214.979L416.448 180.651L416.35 146.169V145.889H416.644H442.908H443.23V146.225C443.23 146.477 446.03 215.007 446.03 215.231H445.834L416.588 215.049L416.63 214.979Z" fill="#263238"/>
<path d="M445.876 214.964C445.876 214.964 443.076 228.964 431.26 228.964C419.444 228.964 416.616 214.964 416.616 214.964H445.876Z" fill="#EBEBEB"/>
<path d="M445.876 214.978H475.122L469.158 146.168H442.894L445.876 214.978Z" fill="#00693D"/>
<path d="M475.122 214.964C475.122 214.964 472.322 228.964 460.506 228.964C448.69 228.964 445.876 214.964 445.876 214.964H475.122Z" fill="#00693D"/>
<path opacity="0.1" d="M475.122 214.964C475.122 214.964 472.322 228.964 460.506 228.964C448.69 228.964 445.876 214.964 445.876 214.964H475.122Z" fill="black"/>
<path d="M475.136 214.978H504.382L495.422 146.168H469.158L475.136 214.978Z" fill="white"/>
<path d="M475.136 214.979L504.382 214.797C503.976 216.057 495.226 145.931 495.086 146.197L495.422 146.505L469.2 146.449L469.48 146.141C470.95 163.291 473.792 197.815 475.178 214.979H475.136ZM475.136 214.979L472 180.665L468.906 146.197V145.889H469.2H495.464H495.8C495.898 146.393 504.578 214.699 504.662 215.231H504.452L475.206 215.049L475.136 214.979Z" fill="#263238"/>
<path d="M504.382 214.964C504.382 214.964 501.582 228.964 489.766 228.964C477.95 228.964 475.136 214.964 475.136 214.964H504.382Z" fill="#EBEBEB"/>
<path d="M504.382 214.978H533.628L521.686 146.168H495.436L504.382 214.978Z" fill="#00693D"/>
<path d="M533.6 214.964C533.6 214.964 530.8 228.964 518.956 228.964C507.112 228.964 504.34 214.964 504.34 214.964H533.6Z" fill="#00693D"/>
<path opacity="0.1" d="M533.6 214.964C533.6 214.964 530.8 228.964 518.956 228.964C507.112 228.964 504.34 214.964 504.34 214.964H533.6Z" fill="black"/>
<path d="M533.6 214.979H562.846L549.784 154.779C548.706 149.809 543.414 146.183 537.184 146.183H521.7L533.6 214.979Z" fill="white"/>
<path d="M533.6 214.979L562.846 214.797L562.664 215.021L552.626 169.311L550.12 157.887C549.85 155.985 549.308 154.132 548.51 152.385C545.486 147.037 538.976 146.141 533.348 146.477H521.658L521.938 146.141C524.934 163.263 530.8 197.801 533.6 214.979ZM533.6 214.979L527.454 180.679L521.42 146.211L521.35 145.889H521.7H533.39C540.208 145.343 548.51 147.289 550.19 154.919C552.29 164.719 560.83 204.507 563.07 214.979V215.203H562.846L533.6 214.979Z" fill="#263238"/>
<path d="M562.874 214.964C562.874 214.964 560.074 228.964 548.258 228.964C536.442 228.964 533.642 214.964 533.642 214.964H562.874Z" fill="#EBEBEB"/>
<path d="M470.054 349.742H333.96V485.836H470.054V349.742Z" fill="#00693D"/>
<path d="M446.716 414.884H357.284V402.2H446.716V414.884Z" fill="white"/>
<path d="M441.732 412.196L438.778 459.25H365.236L362.268 412.196H441.732Z" fill="white"/>
<path d="M411.506 407.114C411.506 408.995 410.949 410.832 409.904 412.396C408.86 413.959 407.375 415.177 405.638 415.897C403.901 416.616 401.99 416.805 400.146 416.438C398.302 416.071 396.608 415.166 395.278 413.836C393.949 412.507 393.044 410.813 392.677 408.969C392.31 407.125 392.498 405.214 393.218 403.477C393.937 401.74 395.156 400.255 396.719 399.21C398.282 398.166 400.12 397.608 402 397.608C404.52 397.612 406.936 398.615 408.718 400.397C410.5 402.179 411.502 404.594 411.506 407.114Z" fill="white"/>
<path d="M389.484 422.374V449.45C389.488 449.769 389.428 450.085 389.309 450.38C389.19 450.675 389.013 450.944 388.789 451.171C388.565 451.397 388.298 451.577 388.004 451.7C387.71 451.823 387.395 451.886 387.076 451.886H386.684C386.421 451.884 386.161 451.831 385.919 451.728C385.677 451.626 385.457 451.477 385.273 451.29C385.088 451.102 384.942 450.881 384.843 450.637C384.744 450.394 384.694 450.133 384.696 449.87V422.374C384.7 421.848 384.911 421.344 385.283 420.972C385.655 420.6 386.158 420.39 386.684 420.386H387.468C387.732 420.382 387.993 420.431 388.238 420.529C388.482 420.627 388.705 420.773 388.892 420.958C389.08 421.143 389.229 421.364 389.33 421.607C389.432 421.85 389.484 422.111 389.484 422.374Z" fill="#00693D"/>
<path d="M404.38 422.375V449.451C404.384 449.769 404.324 450.085 404.205 450.381C404.086 450.676 403.909 450.945 403.685 451.171C403.461 451.398 403.194 451.578 402.9 451.701C402.606 451.823 402.291 451.887 401.972 451.887H401.58C401.317 451.885 401.057 451.831 400.815 451.729C400.573 451.627 400.353 451.478 400.169 451.29C399.984 451.103 399.838 450.881 399.739 450.638C399.64 450.394 399.59 450.133 399.592 449.871V422.375C399.6 421.851 399.812 421.351 400.184 420.982C400.555 420.613 401.057 420.404 401.58 420.401H402.364C402.627 420.397 402.887 420.445 403.13 420.542C403.374 420.64 403.596 420.784 403.783 420.968C403.971 421.151 404.12 421.37 404.222 421.612C404.325 421.853 404.379 422.112 404.38 422.375Z" fill="#00693D"/>
<path d="M419.276 422.374V449.45C419.28 449.769 419.22 450.085 419.101 450.38C418.982 450.675 418.805 450.944 418.581 451.171C418.357 451.397 418.09 451.577 417.796 451.7C417.502 451.823 417.187 451.886 416.868 451.886H416.476C416.213 451.884 415.953 451.831 415.711 451.728C415.469 451.626 415.249 451.477 415.065 451.29C414.88 451.102 414.734 450.881 414.635 450.637C414.536 450.394 414.486 450.133 414.488 449.87V422.374C414.492 421.848 414.703 421.344 415.075 420.972C415.447 420.6 415.95 420.39 416.476 420.386H417.26C417.524 420.382 417.785 420.431 418.03 420.529C418.274 420.627 418.497 420.773 418.684 420.958C418.872 421.143 419.021 421.364 419.122 421.607C419.224 421.85 419.276 422.111 419.276 422.374Z" fill="#00693D"/>
<path d="M428.082 406.344H423.882V381.2H380.118V406.344H375.918V377H428.082V406.344Z" fill="white"/>
<path d="M486.496 364.742C494.763 355.654 494.097 341.584 485.009 333.317C475.92 325.05 461.85 325.716 453.583 334.804C445.316 343.893 445.982 357.963 455.071 366.23C464.159 374.497 478.229 373.831 486.496 364.742Z" fill="#455A64"/>
<path d="M474.66 347.432C475.39 348.144 475.969 348.996 476.363 349.936C476.758 350.876 476.959 351.886 476.956 352.906C476.961 354.449 476.507 355.958 475.652 357.243C474.797 358.527 473.579 359.529 472.154 360.12C470.729 360.711 469.16 360.865 467.647 360.563C466.134 360.26 464.745 359.515 463.656 358.422C463.469 358.263 463.316 358.067 463.208 357.846C463.1 357.625 463.039 357.384 463.029 357.139C463.019 356.893 463.06 356.648 463.15 356.419C463.239 356.19 463.375 355.982 463.549 355.808C463.722 355.635 463.93 355.499 464.159 355.409C464.388 355.32 464.633 355.279 464.879 355.289C465.124 355.299 465.365 355.36 465.586 355.468C465.807 355.576 466.003 355.728 466.162 355.916C466.553 356.308 467.018 356.618 467.53 356.83C468.042 357.041 468.59 357.149 469.144 357.148C469.702 357.153 470.256 357.047 470.773 356.835C471.29 356.623 471.759 356.311 472.154 355.916C472.554 355.524 472.872 355.055 473.088 354.538C473.305 354.021 473.415 353.466 473.414 352.906C473.416 352.352 473.306 351.803 473.089 351.292C472.872 350.782 472.554 350.321 472.154 349.938C471.765 349.541 471.301 349.225 470.789 349.009C470.277 348.793 469.728 348.68 469.172 348.678C468.929 348.691 468.685 348.647 468.462 348.55C468.238 348.453 468.04 348.305 467.884 348.118C467.556 347.781 467.372 347.329 467.372 346.858C467.372 346.387 467.556 345.935 467.884 345.598L471.076 342.35H465.994C465.551 342.31 465.14 342.107 464.84 341.779C464.54 341.451 464.374 341.023 464.374 340.579C464.374 340.135 464.54 339.706 464.84 339.379C465.14 339.051 465.551 338.847 465.994 338.808H475.248C475.481 338.804 475.712 338.847 475.928 338.933C476.145 339.019 476.342 339.147 476.508 339.31C476.675 339.472 476.808 339.666 476.899 339.881C476.99 340.095 477.038 340.325 477.04 340.558C477.032 340.852 476.955 341.139 476.816 341.398C476.733 341.56 476.629 341.71 476.508 341.846L472.546 345.92C473.341 346.285 474.058 346.798 474.66 347.432Z" fill="white"/>
<path d="M569.72 268.906C580.752 276.844 616.018 308.778 618.244 314.098C620.918 320.426 607.24 342.924 601.584 342.434C586.968 341.16 561.376 295.128 553.172 274.058C549.154 263.754 551.268 255.62 569.72 268.906Z" fill="#D3766A"/>
<path d="M599.61 266.064C602.774 262.592 627.82 281.24 627.316 288.128C625.482 313.468 617.712 334.986 613.092 339.438C611.619 340.79 609.848 341.775 607.922 342.312C605.996 342.849 603.97 342.924 602.01 342.529C600.05 342.135 598.211 341.283 596.643 340.042C595.075 338.802 593.823 337.208 592.988 335.392C587.444 323.8 587.346 279.49 599.61 266.064Z" fill="#D3766A"/>
<path d="M590.286 321.07C587.486 307.07 591.112 287.274 591.098 287.246C591.098 286.966 591.462 286.868 591.476 287.022C591.574 289.822 589.67 310.57 590.664 320.958C590.664 321 590.3 321.168 590.286 321.07Z" fill="#263238"/>
<path d="M632.65 269.578C632.23 276.928 625.496 291.6 622.5 294.526C619.504 297.452 594.178 286.812 593.1 282.668C592.022 278.524 595.34 253.912 600.352 248.34C605.364 242.768 633.084 261.962 632.65 269.578Z" fill="#D3766A"/>
<path d="M592.89 278.384C590.998 272.749 588.296 267.42 584.868 262.564C580.57 256.964 573.556 249.04 576.468 246.604C582.516 241.634 600.002 261.318 600.002 261.318C600.002 261.318 606.33 271.23 600.772 276.718C599.737 277.693 598.455 278.363 597.065 278.657C595.674 278.951 594.23 278.857 592.89 278.384Z" fill="#D3766A"/>
<path d="M600.45 263.53L607.002 259.484L595.298 240.514L587.01 245.638L600.45 263.53Z" fill="#00693D"/>
<path d="M587.024 245.638L592.134 252.456L600.464 263.53L607.002 259.484L595.312 240.514L587.024 245.638Z" fill="#00693D"/>
<path opacity="0.1" d="M587.024 245.638L592.134 252.456L599.764 247.752L595.312 240.514L587.024 245.638Z" fill="black"/>
<path d="M587.596 251.834L597.889 245.416L593.014 237.598L582.721 244.016L587.596 251.834Z" fill="#00693D"/>
<path d="M574.466 242.474L582.978 238.33L575.152 225.66L567.634 231.4L574.466 242.474Z" fill="#00693D"/>
<path d="M577.728 220.606L589.264 239.31L603.698 232.632L642.044 224.848L614.324 179.922L590.174 210.708L577.728 220.606Z" fill="#00693D"/>
<path d="M621.66 206.41C629.346 218.884 638.838 226.99 642.842 224.512C646.846 222.034 643.864 209.938 636.164 197.464C628.464 184.99 619 176.898 614.982 179.362C610.964 181.826 613.974 193.95 621.66 206.41Z" fill="#00693D"/>
<path opacity="0.2" d="M623.116 204.982C629.934 216.056 638.124 223.378 641.414 221.362C644.704 219.346 641.82 208.762 634.988 197.66C628.156 186.558 619.966 179.264 616.69 181.28C613.414 183.296 616.284 193.922 623.116 204.982Z" fill="black"/>
<path d="M624.082 204.394C624.992 205.864 625.916 207.264 626.882 208.594C627.868 208.719 628.87 208.563 629.771 208.142C630.672 207.722 631.435 207.055 631.973 206.218C632.51 205.382 632.8 204.41 632.808 203.416C632.817 202.422 632.543 201.445 632.02 200.6L630.718 198.486C630.198 197.642 629.451 196.962 628.561 196.524C627.672 196.086 626.678 195.908 625.692 196.011C624.706 196.113 623.769 196.492 622.989 197.103C622.209 197.714 621.617 198.533 621.282 199.466C622.122 201.076 623.06 202.728 624.082 204.394Z" fill="#00693D"/>
<path d="M582.656 244.826L599.106 236.818L583.986 212.304L569.44 223.406L582.656 244.826Z" fill="#00693D"/>
<path opacity="0.2" d="M582.656 244.826L599.106 236.818L583.986 212.304L569.44 223.406L582.656 244.826Z" fill="black"/>
<path opacity="0.2" d="M614.128 184.304C613.892 186.284 614.016 188.29 614.492 190.226C614.931 192.168 615.521 194.073 616.256 195.924C616.606 196.862 617.026 197.758 617.418 198.724C617.81 199.69 618.286 200.516 618.748 201.398C619.21 202.28 619.672 203.162 620.148 204.016C620.624 204.87 621.142 205.738 621.66 206.578C623.745 209.971 626.13 213.171 628.786 216.14C630.128 217.613 631.599 218.962 633.182 220.172C634.742 221.422 636.551 222.325 638.488 222.818C636.604 222.24 634.857 221.288 633.35 220.018C631.836 218.768 630.431 217.391 629.15 215.902C626.549 212.919 624.207 209.72 622.15 206.34C620.029 203 618.184 199.493 616.634 195.854C615.856 194.04 615.224 192.168 614.744 190.254C614.186 188.323 613.978 186.308 614.128 184.304Z" fill="black"/>
<path d="M630.074 173.104C629.388 174.294 628.758 175.512 628.142 176.744C627.526 177.976 626.938 179.208 626.364 180.454C625.79 181.7 625.23 182.96 624.712 184.22L623.928 186.138C623.69 186.782 623.424 187.412 623.2 188.07C623.55 187.468 623.872 186.866 624.208 186.264L625.146 184.43C625.762 183.198 626.35 181.966 626.924 180.72C627.498 179.474 628.058 178.214 628.576 176.94C629.094 175.666 629.626 174.406 630.074 173.104Z" fill="#263238"/>
<path d="M637.802 213.2C639.342 213.018 640.868 212.752 642.394 212.486C643.92 212.22 645.432 211.912 646.944 211.604C648.456 211.296 649.982 210.96 651.48 210.582L653.734 210.022C654.476 209.812 655.232 209.63 655.974 209.392L653.664 209.728L651.382 210.12C649.856 210.372 648.344 210.68 646.818 211.002C645.292 211.324 643.794 211.646 642.296 212.024C640.798 212.402 639.286 212.822 637.802 213.2Z" fill="#263238"/>
<path d="M662.302 197.716C660.118 198.388 657.962 199.116 655.82 199.872C653.678 200.628 651.536 201.398 649.394 202.182C647.252 202.966 645.194 203.778 643.024 204.632L639.86 205.906C638.81 206.34 637.746 206.774 636.71 207.236C637.802 206.9 638.88 206.536 639.958 206.186L643.192 205.08C645.348 204.338 647.476 203.554 649.618 202.77C651.76 201.986 653.818 201.16 655.988 200.32C658.158 199.48 660.216 198.626 662.302 197.716Z" fill="#263238"/>
<path d="M642.058 168.834C640.658 170.71 639.426 172.628 638.138 174.546C636.85 176.464 635.604 178.41 634.372 180.356C633.14 182.302 631.908 184.248 630.718 186.236L628.926 189.204C628.352 190.198 627.764 191.192 627.204 192.2C627.876 191.262 628.52 190.31 629.192 189.4L631.124 186.6C632.398 184.682 633.644 182.736 634.89 180.79C636.136 178.844 637.354 176.898 638.544 174.91C639.734 172.922 640.924 170.85 642.058 168.834Z" fill="#263238"/>
<path d="M632.622 199.41C634.946 198.108 637.228 196.736 639.51 195.35C641.792 193.964 644.032 192.55 646.3 191.15C648.568 189.75 650.794 188.35 653.02 186.81L656.366 184.612C657.458 183.856 658.564 183.114 659.656 182.344C658.494 183.002 657.346 183.744 656.198 184.346L652.768 186.418C650.486 187.818 648.246 189.218 645.978 190.618C643.71 192.018 641.484 193.418 639.258 194.944C637.032 196.47 634.806 197.884 632.622 199.41Z" fill="#263238"/>
<path d="M594.318 258.462C596.138 261.92 599.162 257.79 599.162 257.79C599.162 257.79 596.236 264.79 599.498 267.59C602.76 270.39 606.106 265.196 606.358 264.79C606.204 265.154 603.698 271.636 607.254 274.142C610.81 276.648 613.568 271.02 613.736 270.642C613.736 271.048 613.358 276.242 616.536 277.558C621.926 279.756 623.172 266.428 626.938 263.558C626.938 263.558 632.538 269.368 632.692 269.508C632.846 269.648 634.092 256.908 630.004 251.994C629.416 251.279 628.601 250.786 627.695 250.598C626.788 250.409 625.845 250.536 625.02 250.958C625.02 250.958 625.93 246.94 623.186 244.868C621.786 243.818 618.846 245.134 618.846 245.134C619.005 244.211 618.906 243.263 618.56 242.394C618.214 241.524 617.635 240.767 616.886 240.206C614.856 238.806 612.224 240.388 612.224 240.388C612.224 240.388 611.356 236.986 608.822 236.286C603.698 234.928 590.426 251.084 594.318 258.462Z" fill="#D3766A"/>
<path d="M611.734 240.64C611.734 240.64 611.734 240.514 611.664 240.556C605.758 244.947 601.329 251.031 598.966 258C598.896 258.224 599.232 258.434 599.358 258.196C602.607 251.774 606.777 245.859 611.734 240.64Z" fill="#263238"/>
<path d="M618.832 245.106C618.832 245.106 618.832 244.952 618.72 245.008C612.28 249.923 607.811 256.98 606.12 264.902C606.12 265.182 606.302 265.476 606.386 265.168C607.8 259.834 614.114 249.936 618.832 245.106Z" fill="#263238"/>
<path d="M613.82 271.314C615.57 263.572 619.616 257.174 624.726 251.196C624.726 251.196 624.726 251.042 624.6 251.084C621.31 253.324 618.454 257.482 616.494 260.884C614.626 264.022 613.612 267.594 613.554 271.244C613.554 271.398 613.778 271.468 613.82 271.314Z" fill="#263238"/>
<path d="M599.036 257.832C598.952 258.098 599.428 257.93 599.358 258.196C599.05 259.344 597.748 266.344 600.002 267.52C601.808 268.472 604.328 266.694 605.028 265.63L606.792 262.97L606.064 266.092C605.728 267.465 605.62 268.884 605.742 270.292C605.764 270.951 605.923 271.597 606.21 272.19C606.497 272.784 606.905 273.31 607.408 273.736C607.887 274.119 608.482 274.327 609.095 274.327C609.708 274.327 610.303 274.119 610.782 273.736C611.831 272.856 612.64 271.724 613.134 270.446L614.632 266.974L614.366 270.726C614.289 271.774 614.345 272.828 614.534 273.862C614.681 274.847 615.114 275.767 615.78 276.508C616.094 276.828 616.491 277.053 616.926 277.16C617.361 277.266 617.818 277.249 618.244 277.11C619.151 276.662 619.909 275.962 620.428 275.094C621.588 273.235 622.599 271.288 623.452 269.27C623.928 268.262 624.39 267.254 624.852 266.274C625.315 265.25 625.993 264.338 626.84 263.6C626.092 264.412 625.512 265.364 625.132 266.4C624.698 267.422 624.306 268.458 623.914 269.494C623.178 271.614 622.24 273.658 621.114 275.598C620.533 276.668 619.646 277.541 618.566 278.104C617.947 278.349 617.271 278.408 616.619 278.273C615.967 278.139 615.369 277.818 614.898 277.348C614.047 276.45 613.481 275.32 613.274 274.1C613.04 272.958 612.96 271.791 613.036 270.628L614.254 270.894C613.686 272.427 612.719 273.78 611.454 274.814C610.748 275.369 609.873 275.665 608.976 275.654C608.093 275.601 607.246 275.29 606.54 274.758C605.901 274.222 605.382 273.557 605.018 272.807C604.653 272.057 604.452 271.238 604.426 270.404C604.312 268.842 604.454 267.272 604.846 265.756L605.882 266.218C604.944 267.534 602.34 269.816 599.358 268.71C595.802 266.708 598.448 259.176 599.036 257.832Z" fill="#263238"/>
<path d="M599.162 257.79C598.573 258.353 597.903 258.825 597.174 259.19C596.883 259.328 596.562 259.389 596.241 259.367C595.919 259.345 595.609 259.24 595.34 259.064C594.816 258.582 594.442 257.96 594.262 257.272C594.024 256.516 593.814 255.718 593.632 254.892C593.381 255.721 593.309 256.594 593.422 257.454C593.501 258.42 593.959 259.316 594.696 259.946C595.116 260.241 595.617 260.4 596.131 260.4C596.645 260.4 597.146 260.241 597.566 259.946C598.32 259.421 598.88 258.663 599.162 257.79Z" fill="#263238"/>
<path d="M535.406 668.816C532.606 667.094 476.242 598.816 475.752 594.798C475.682 594.252 484.264 586.524 495.156 576.822C495.716 576.318 536.512 536.838 536.512 536.838L571.512 579.104L533.236 618.164C533.236 618.164 543.12 653.962 543.204 658.386C543.288 662.81 538.178 670.552 535.406 668.816Z" fill="#D3766A"/>
<path d="M537.31 632.319C537.212 632.094 537.184 631.968 537.226 631.912C537.262 632.046 537.29 632.182 537.31 632.319Z" fill="#00693D"/>
<path d="M543.218 658.4C543.288 662.796 538.164 670.566 535.406 668.83C532.648 667.094 476.242 598.83 475.752 594.812C475.668 594.266 484.25 586.538 495.156 576.836L503.92 568.436L539.998 611.346L533.25 618.234C533.25 618.234 543.134 653.962 543.218 658.4Z" fill="#EBEBEB"/>
<path d="M537.59 668.102C534.79 666.352 477.964 597.164 477.474 593.146C477.264 591.634 486.868 582.758 498.768 572.384L499.146 572.062L536.302 616.302L535.532 616.904C535.532 616.904 545.43 653.122 545.514 657.588C545.598 662.054 540.376 669.866 537.59 668.102Z" fill="#00693D"/>
<path d="M539.62 665.12C530.338 653.22 491.726 606.096 481.646 595.036C481.562 594.952 481.492 595.036 481.576 595.106C490.522 607.104 529.498 653.906 539.438 665.274C539.648 665.512 539.816 665.4 539.62 665.12Z" fill="white"/>
<path d="M538.486 620.768C535.574 615.462 530.254 610.436 524.108 609.568C523.87 609.568 523.828 609.876 523.996 609.988C529.01 613.218 533.665 616.973 537.884 621.188C537.947 621.244 538.028 621.277 538.112 621.282C538.196 621.286 538.28 621.263 538.349 621.214C538.419 621.166 538.47 621.096 538.494 621.015C538.519 620.934 538.516 620.847 538.486 620.768Z" fill="white"/>
<path d="M539.2 625.71C536.288 620.418 530.982 615.392 524.822 614.51C524.584 614.51 524.542 614.818 524.71 614.93C529.732 618.155 534.392 621.91 538.612 626.13C538.676 626.179 538.755 626.206 538.836 626.207C538.916 626.209 538.995 626.184 539.061 626.137C539.127 626.09 539.176 626.023 539.201 625.946C539.226 625.869 539.226 625.786 539.2 625.71Z" fill="white"/>
<path d="M539.928 630.666C537.016 625.374 531.696 620.334 525.55 619.466C525.312 619.466 525.27 619.774 525.438 619.872C530.456 623.102 535.116 626.856 539.34 631.072C539.403 631.118 539.48 631.144 539.558 631.145C539.637 631.146 539.714 631.123 539.779 631.078C539.843 631.034 539.893 630.97 539.919 630.896C539.946 630.822 539.949 630.742 539.928 630.666Z" fill="white"/>
<path d="M540.936 667.122C541.468 668.76 537.086 671.91 536.022 671.322C534.958 670.734 473.4 594.938 472.574 593.412C471.748 591.886 476.774 588.596 478.258 589.884C479.742 591.172 540.936 667.122 540.936 667.122Z" fill="#263238"/>
<path d="M500.784 589.8C499.174 582.8 488.184 585.222 489.78 592.306C491.376 599.39 502.394 596.94 500.784 589.8Z" fill="white"/>
<path d="M564.554 494.18C561.418 509.58 504.76 562.85 504.76 562.85L549.406 614.398C549.406 614.398 632.972 531.994 628.226 497.89C624.096 468.21 579.674 348.902 579.674 348.902H528.42C528.42 348.902 567.62 479.004 564.554 494.18Z" fill="#37474F"/>
<path d="M564.554 494.18C561.418 509.58 504.76 562.85 504.76 562.85L549.406 614.398C549.406 614.398 632.972 531.994 628.226 497.89C624.096 468.21 579.674 348.902 579.674 348.902H528.42C528.42 348.902 567.62 479.004 564.554 494.18Z" fill="#37474F"/>
<path d="M554.488 602.134C548.552 594.756 550.358 596.786 544.352 589.464C541.398 585.88 522.036 562.374 518.704 559.504C518.634 559.504 518.508 559.504 518.55 559.63C520.79 563.41 540.558 586.594 543.582 590.122C549.728 597.318 548.048 595.19 554.278 602.316C554.39 602.4 554.6 602.274 554.488 602.134Z" fill="#263238"/>
<path d="M570.91 486.662C570.182 482.812 569.342 478.962 568.53 475.126C566.859 467.286 565.095 459.469 563.238 451.676C559.561 436.22 555.547 420.848 551.198 405.56C546.83 390.23 542.21 374.914 536.89 359.878C536.246 358.016 535.49 356.168 534.888 354.278C534.888 354.138 534.608 354.194 534.664 354.278C539.27 369.342 544.016 384.364 548.328 399.512C552.64 414.66 556.616 429.766 560.368 444.998C562.244 452.656 563.994 460.398 565.716 468.014C566.556 471.794 567.377 475.578 568.18 479.368C569.179 483.207 569.895 487.114 570.322 491.058C570.454 494.797 569.4 498.482 567.312 501.586C565.394 504.736 563.112 507.69 560.956 510.658C556.574 516.594 522.246 554.688 520.902 555.962C520.79 556.06 520.902 556.2 521.056 556.116C526.656 551.09 554.656 521.116 559.164 515.222C561.39 512.296 563.546 509.314 565.674 506.318C567.804 503.593 569.521 500.569 570.77 497.344C571.727 493.853 571.775 490.176 570.91 486.662Z" fill="#263238"/>
<path d="M570.812 348.888L561.502 470.996C552.626 429.206 528.434 348.888 528.434 348.888H570.812Z" fill="#263238"/>
<path d="M656.8 684.86C653.72 685.91 565.114 686.148 561.74 684.006C561.264 683.726 560.746 672.19 560.158 657.602C560.158 656.86 549.294 597.108 549.294 597.108L604.188 596.842L616.284 654.382C616.284 654.382 650.234 669.46 653.706 672.19C657.178 674.92 659.852 683.824 656.8 684.86Z" fill="#D3766A"/>
<path d="M656.8 684.86C653.706 685.91 565.114 686.148 561.74 684.006C561.264 683.726 560.732 672.19 560.144 657.602C560.144 657.392 559.318 652.744 558.128 646.108H614.534L616.27 654.382C616.27 654.382 650.22 669.46 653.692 672.19C657.164 674.92 659.852 683.824 656.8 684.86Z" fill="#EBEBEB"/>
<path d="M629.753 660.221C629.528 660.221 629.402 660.095 629.388 660.024L629.753 660.221Z" fill="#00693D"/>
<path d="M657.206 684.468C654.07 685.504 564.526 685.098 561.138 682.914C559.822 682.102 559.122 669.054 558.73 653.262V652.8L616.494 652.408V653.388C616.494 653.388 650.696 668.886 654.182 671.672C657.668 674.458 660.328 683.432 657.206 684.468Z" fill="#00693D"/>
<path d="M656.198 680.982C641.106 680.548 580.192 680.198 565.198 680.912C565.072 680.912 565.072 680.996 565.198 681.01C580.136 681.766 641.05 681.626 656.198 681.234C656.52 681.22 656.52 680.996 656.198 680.982Z" fill="white"/>
<path d="M621.324 653.556C615.388 652.422 608.122 653.304 603.558 657.518C603.39 657.672 603.558 657.924 603.81 657.868C609.495 656.061 615.357 654.868 621.296 654.312C621.396 654.316 621.494 654.28 621.567 654.211C621.641 654.143 621.684 654.048 621.688 653.948C621.692 653.848 621.655 653.75 621.587 653.677C621.519 653.603 621.424 653.56 621.324 653.556Z" fill="white"/>
<path d="M625.594 656.16C619.658 655.026 612.392 655.908 607.842 660.122C607.66 660.276 607.842 660.528 608.08 660.472C613.765 658.667 619.627 657.475 625.566 656.916C625.616 656.917 625.665 656.909 625.712 656.892C625.758 656.875 625.801 656.849 625.837 656.815C625.874 656.781 625.903 656.74 625.924 656.695C625.945 656.65 625.956 656.601 625.958 656.552C625.96 656.502 625.952 656.452 625.935 656.406C625.917 656.359 625.891 656.317 625.857 656.28C625.823 656.244 625.783 656.214 625.738 656.194C625.693 656.173 625.644 656.161 625.594 656.16Z" fill="white"/>
<path d="M629.878 658.764C623.942 657.63 616.662 658.512 612.112 662.726C611.93 662.88 612.112 663.132 612.364 663.076C618.049 661.269 623.911 660.076 629.85 659.52C629.95 659.524 630.048 659.488 630.121 659.419C630.195 659.351 630.238 659.256 630.242 659.156C630.246 659.056 630.209 658.958 630.141 658.885C630.073 658.811 629.978 658.768 629.878 658.764Z" fill="white"/>
<path d="M658.578 681.262C660.188 681.878 659.81 687.268 658.648 687.688C657.486 688.108 559.864 687.24 558.212 686.862C556.56 686.484 557.19 680.534 559.122 680.226C561.054 679.918 658.578 681.262 658.578 681.262Z" fill="#263238"/>
<path d="M573.458 662.866C566.99 659.59 561.88 669.642 568.376 672.932C574.872 676.222 579.954 666.142 573.458 662.866Z" fill="white"/>
<path d="M574.732 348.902C572.736 357.324 571.264 365.862 570.322 374.466C569.258 385.19 567.914 394.682 566.486 395.858C565.058 397.034 556.77 402.396 554.04 404.062C554.04 404.062 579.24 480.614 585.806 506.122C595.256 543.11 617.838 641.236 617.838 641.236H556C556 641.236 539.298 548.444 531.29 513.234C524.388 483.022 498.068 392.4 498.068 392.4C488.492 368.852 504.634 348.846 504.634 348.846C504.634 348.846 574.732 348.86 574.732 348.902Z" fill="#37474F"/>
<path d="M612.084 629.532C602.942 629.532 605.574 629.364 596.432 629.42C591.966 629.42 562.594 629.63 558.422 630.414C558.338 630.414 558.338 630.596 558.422 630.61C562.622 631.254 592.022 630.61 596.432 630.428C605.574 630.19 602.942 630.148 612.07 629.812C612.107 629.813 612.143 629.801 612.171 629.776C612.198 629.751 612.215 629.716 612.217 629.679C612.219 629.641 612.206 629.605 612.181 629.578C612.156 629.55 612.121 629.534 612.084 629.532Z" fill="#263238"/>
<path d="M570.756 392.834C564.899 396.08 559.335 399.827 554.124 404.034C554.102 404.048 554.083 404.067 554.068 404.089C554.054 404.111 554.043 404.136 554.038 404.162C554.033 404.188 554.033 404.215 554.038 404.241C554.043 404.267 554.053 404.292 554.068 404.314C554.083 404.336 554.102 404.355 554.124 404.369C554.146 404.384 554.171 404.394 554.197 404.4C554.223 404.405 554.249 404.405 554.275 404.4C554.301 404.395 554.326 404.384 554.348 404.37C559.948 400.842 565.758 397.37 571.148 393.562C571.245 393.51 571.317 393.421 571.348 393.316C571.38 393.211 571.368 393.098 571.316 393.002C571.264 392.905 571.176 392.833 571.071 392.802C570.966 392.77 570.853 392.782 570.756 392.834Z" fill="#263238"/>
<path d="M566.15 351.198C566.15 350.988 565.73 351.002 565.772 351.198C566.817 357.934 567.523 364.719 567.886 371.526C568.096 374.69 568.264 392.26 562.664 391.854C561.74 391.854 561.138 390.958 560.788 389.628C560.526 387.843 560.488 386.032 560.676 384.238C560.676 380.542 560.676 376.86 560.382 373.178C559.961 366.313 558.83 359.51 557.008 352.878C556.992 352.839 556.962 352.807 556.925 352.788C556.888 352.768 556.845 352.761 556.804 352.77C556.763 352.778 556.726 352.8 556.699 352.833C556.672 352.865 556.658 352.906 556.658 352.948C558.283 362.311 559.191 371.783 559.374 381.284C559.374 385.848 558.198 392.932 562.972 392.904C567.746 392.876 569.174 381.102 569.286 377.924C569.403 368.917 568.349 359.933 566.15 351.198Z" fill="#263238"/>
<path d="M562.888 392.316C562.585 393.55 562.365 394.804 562.23 396.068C562.049 397.063 562.049 398.083 562.23 399.078C562.245 399.118 562.272 399.152 562.307 399.176C562.342 399.2 562.384 399.213 562.426 399.213C562.469 399.213 562.51 399.2 562.545 399.176C562.58 399.152 562.607 399.118 562.622 399.078C563.043 398.111 563.316 397.087 563.434 396.04C563.672 394.878 563.938 393.716 564.134 392.54C564.164 392.375 564.127 392.204 564.031 392.067C563.935 391.929 563.788 391.835 563.623 391.805C563.458 391.775 563.288 391.812 563.15 391.908C563.012 392.004 562.918 392.151 562.888 392.316Z" fill="#263238"/>
<path d="M550.596 609.148C550.428 607.748 550.246 606.348 550.05 604.948C549.672 602.274 549.224 599.614 548.804 596.94C547.978 591.578 547.068 586.244 546.116 580.91C544.226 570.256 542.042 559.644 539.732 549.088C538.43 543.11 536.932 537.216 535.322 531.308C535.21 530.902 534.636 531.098 534.706 531.504C535.672 536.894 536.61 542.298 537.716 547.674C538.822 553.05 539.914 558.398 540.978 563.76C543.078 574.358 545.038 584.998 547.138 595.61C547.74 598.606 548.272 601.602 548.86 604.598C549.154 606.096 549.448 607.58 549.77 609.078C550.092 610.576 550.554 612.018 550.806 613.516C550.806 613.656 551.03 613.586 551.016 613.516C550.778 612.046 550.75 610.59 550.596 609.148Z" fill="#263238"/>
<path d="M592.162 529.054C590.146 519.044 587.444 509.174 584.728 499.346C579.24 479.564 572.8 460.076 566.36 440.546L560.76 423.746C559.822 420.946 555.286 405.812 554.726 404.37C554.656 404.23 554.446 404.286 554.488 404.37C555.79 409.522 557.568 417.04 559.08 422.15C560.592 427.26 562.188 432.202 563.756 437.228C566.836 447.098 569.972 456.954 572.954 466.852C578.862 486.452 584.742 505.954 589.53 525.834C590.93 531.434 592.218 536.95 593.436 542.55C594.654 548.15 595.718 553.75 596.88 559.35C596.88 559.388 596.895 559.423 596.921 559.449C596.947 559.476 596.983 559.49 597.02 559.49C597.057 559.49 597.093 559.476 597.119 559.449C597.145 559.423 597.16 559.388 597.16 559.35C596.194 549.2 594.164 539.078 592.162 529.054Z" fill="#263238"/>
<path d="M554.684 581.4C551.366 562.318 547.39 543.348 542.98 524.476C538.57 505.604 533.628 486.676 528.196 468C522.764 449.324 516.8 430.76 510.29 412.406C507.238 403.712 503.5 395.102 502.114 385.974C500.175 374.254 502.143 362.221 507.714 351.73C507.722 351.715 507.727 351.699 507.729 351.682C507.731 351.665 507.73 351.648 507.726 351.632C507.721 351.616 507.713 351.6 507.703 351.587C507.693 351.574 507.68 351.563 507.665 351.555C507.65 351.546 507.634 351.541 507.617 351.539C507.6 351.537 507.583 351.538 507.567 351.543C507.551 351.547 507.536 351.555 507.523 351.566C507.509 351.576 507.498 351.589 507.49 351.604C502.044 359.738 495.982 376.594 506.09 403.628C509.45 412.644 512.348 421.828 515.33 430.942C518.391 440.34 521.327 449.762 524.136 459.208C529.736 477.954 534.86 496.826 539.536 515.824C544.212 534.822 548.286 553.946 551.912 573.154C555.538 592.362 556.994 598.942 560.088 618.304C560.494 620.824 560.816 623.358 561.152 625.892C561.152 626.032 561.39 626.032 561.376 625.892C558.898 606.698 557.988 600.426 554.684 581.4Z" fill="#263238"/>
<path d="M582.082 350.722L578.092 324.262C578.092 324.262 585.946 315.064 580.962 304.158C578.4 298.6 562.538 268.64 553.2 261.78C544.422 255.34 533.404 261.416 529.274 266.946C517.388 282.864 508.75 298.138 501.876 350.288L582.082 350.722Z" fill="#00693D"/>
<path d="M564.554 320.048C560.519 320.413 556.518 321.082 552.584 322.05C550.638 322.554 548.72 323.156 546.816 323.786C545.864 324.108 544.898 324.388 543.946 324.668C542.942 324.988 541.903 325.186 540.852 325.256C540.768 325.256 540.768 325.396 540.852 325.41C541.842 325.449 542.833 325.426 543.82 325.34C544.764 325.22 545.7 325.038 546.62 324.794C548.608 324.304 550.554 323.716 552.542 323.198C556.518 322.162 560.508 321.126 564.554 320.398C564.792 320.342 564.736 320.02 564.554 320.048Z" fill="#263238"/>
<path d="M574.536 323.59C571.211 323.245 567.868 323.096 564.526 323.142C562.86 323.142 561.194 323.282 559.528 323.45C558.744 323.534 557.946 323.618 557.148 323.73C556.35 323.842 555.426 324.066 554.558 324.178C554.539 324.178 554.521 324.185 554.508 324.199C554.495 324.212 554.488 324.229 554.488 324.248C554.488 324.267 554.495 324.284 554.508 324.298C554.521 324.311 554.539 324.318 554.558 324.318C555.384 324.248 556.224 324.318 557.05 324.318H559.542L564.54 324.178C567.872 324.052 571.204 323.968 574.536 323.954C574.56 323.954 574.583 323.949 574.605 323.94C574.627 323.931 574.648 323.918 574.664 323.901C574.681 323.884 574.695 323.864 574.704 323.842C574.713 323.82 574.718 323.796 574.718 323.772C574.718 323.748 574.713 323.724 574.704 323.702C574.695 323.68 574.681 323.66 574.664 323.643C574.648 323.626 574.627 323.613 574.605 323.604C574.583 323.595 574.56 323.59 574.536 323.59Z" fill="#263238"/>
<path d="M528.728 266.4C503.682 290.018 480.484 329.022 482.136 349.504C483.774 369.734 490.634 367.13 492.622 366.822C504.76 364.918 528.42 306.076 535.098 282.36C541.776 258.644 534.916 260.562 528.728 266.4Z" fill="#D3766A"/>
<path d="M535.91 243.468C531.556 243.342 521.392 248.34 518.858 254.584C516.324 260.828 518.326 269.774 520.342 270.306C522.358 270.838 530.142 268.654 535.056 264.622C539.97 260.59 538.052 243.538 535.91 243.468Z" fill="#263238"/>
<path d="M535.924 243.496C536.05 243.496 536.022 243.202 535.924 243.23C532.256 243.818 528.574 245.792 525.284 247.43C522.532 248.634 520.062 250.398 518.032 252.61C517.108 253.717 516.435 255.011 516.06 256.404C515.686 257.796 515.618 259.253 515.862 260.674C516.291 264.148 517.602 267.454 519.67 270.278C519.74 270.348 519.894 270.278 519.838 270.194C517.038 264.426 514.126 257.272 519.39 251.994C523.8 247.528 530.282 245.876 535.924 243.496Z" fill="#263238"/>
<path d="M520.65 268.612C517.094 269.774 508.918 278.51 508.652 285.748C508.386 292.986 515.932 302.17 517.864 302.548C519.796 302.926 526.6 294.778 528.294 289.388C529.442 285.804 527.328 282.262 525.816 278.622C523.59 273.288 521.196 268.43 520.65 268.612Z" fill="#263238"/>
<path d="M530.324 288.142C530.072 280.862 524.724 274.618 521.126 268.696H521.014C523.506 274.562 528.224 279.378 529.54 285.762C530.009 287.618 530.023 289.558 529.582 291.42C529.141 293.282 528.257 295.011 527.006 296.458C524.682 298.992 521.406 300.56 518.508 302.268C518.312 302.38 518.508 302.66 518.704 302.548C524.584 299.37 530.576 295.646 530.324 288.142Z" fill="#263238"/>
<path d="M519.978 269.41C520.146 269.284 519.978 269.018 519.81 269.144C515.078 272.574 509.52 277.348 507.728 283.144C505.796 289.402 509.94 294.792 513.594 299.412C513.594 299.412 513.734 299.412 513.692 299.412C510.066 294.694 506.048 288.744 508.414 282.612C510.458 277.166 515.54 272.742 519.978 269.41Z" fill="#263238"/>
<path d="M519.012 300.952C515.582 305.95 511.62 313.104 514.406 317.92C517.192 322.736 525.788 328.378 526.362 328.182C526.936 327.986 534.286 319.208 534.132 312.418C533.978 305.628 519.46 300.294 519.012 300.952Z" fill="#263238"/>
<path d="M526.936 328.448C521.924 326.404 515.848 323.338 513.776 317.934C511.704 312.53 515.666 305.95 518.508 301.764H518.438C515.162 305.81 511.438 312.474 513.244 317.836C515.05 323.198 521.644 327.398 526.88 328.714C526.992 328.672 527.034 328.49 526.936 328.448Z" fill="#263238"/>
<path d="M526.124 327.692C525.167 329.64 524.619 331.763 524.516 333.93C524.412 336.097 524.755 338.263 525.522 340.292C528.658 348.342 525.032 348.538 518.2 355.23C512.404 360.83 515.4 369.314 521.28 370.91C521.28 370.91 516.422 367.48 519.628 362.51C523.45 356.546 539.298 354.88 540.936 343.498C543.078 328.728 526.124 327.692 526.124 327.692Z" fill="#263238"/>
<path d="M525.2 332.788C525.2 332.634 524.962 332.578 524.934 332.788C524.554 334.254 524.445 335.777 524.612 337.282C524.85 339.228 525.816 340.936 526.18 342.882C527.104 347.754 522.176 350.498 518.802 352.836C514.294 355.958 512.208 361.096 514.868 366.234C514.868 366.304 515.022 366.234 514.98 366.234C514.177 364.64 513.825 362.858 513.961 361.08C514.096 359.301 514.715 357.593 515.75 356.14C517.822 353.34 521.35 352.108 523.744 349.728C525.424 348.09 526.88 346.102 526.656 343.652C526.422 342.327 526.047 341.032 525.536 339.788C524.82 337.523 524.705 335.111 525.2 332.788Z" fill="#263238"/>
<path d="M527.888 327.846C527.818 327.846 527.804 327.944 527.888 327.958C532.088 329.008 536.526 329.974 539.578 333.376C542.868 337.03 543.19 342.462 541.426 346.9C539.438 351.87 534.72 352.85 530.226 354.474C526.866 355.439 523.826 357.286 521.42 359.822C521.35 359.906 521.49 360.018 521.574 359.948C525.592 356.098 530.688 354.95 535.7 352.948C537.596 352.259 539.259 351.048 540.498 349.456C541.736 347.863 542.499 345.953 542.7 343.946C544.086 334.412 536.484 329.022 527.888 327.846Z" fill="#263238"/>
<path d="M530.128 237.42C529.793 237.262 529.411 237.235 529.058 237.344C528.704 237.454 528.404 237.691 528.216 238.01C528.028 238.329 527.967 238.707 528.043 239.069C528.12 239.432 528.329 239.752 528.63 239.968C528.965 240.126 529.347 240.153 529.7 240.044C530.054 239.934 530.354 239.697 530.542 239.378C530.73 239.059 530.791 238.681 530.715 238.319C530.638 237.956 530.429 237.636 530.128 237.42Z" fill="#00693D"/>
<path d="M532.088 239.366C531.752 239.192 531.362 239.153 530.998 239.258C530.634 239.362 530.324 239.601 530.131 239.927C529.938 240.252 529.877 240.639 529.959 241.009C530.042 241.378 530.263 241.702 530.576 241.914C530.912 242.087 531.302 242.126 531.666 242.021C532.03 241.917 532.34 241.678 532.533 241.352C532.726 241.027 532.788 240.64 532.705 240.271C532.622 239.901 532.402 239.578 532.088 239.366Z" fill="#00693D"/>
<path d="M534.356 240.962C534.021 240.804 533.639 240.777 533.286 240.886C532.932 240.996 532.632 241.233 532.444 241.552C532.256 241.871 532.195 242.249 532.271 242.611C532.348 242.974 532.557 243.294 532.858 243.51C533.193 243.668 533.575 243.695 533.928 243.586C534.282 243.476 534.582 243.239 534.77 242.92C534.958 242.601 535.019 242.223 534.943 241.861C534.866 241.498 534.657 241.178 534.356 240.962Z" fill="#00693D"/>
<path d="M536.764 242.208C536.428 242.035 536.038 241.996 535.674 242.1C535.31 242.205 535 242.444 534.807 242.77C534.614 243.095 534.552 243.482 534.635 243.851C534.718 244.221 534.938 244.544 535.252 244.756C535.588 244.93 535.978 244.969 536.342 244.864C536.706 244.76 537.016 244.521 537.209 244.195C537.402 243.87 537.464 243.483 537.381 243.113C537.298 242.744 537.077 242.42 536.764 242.208Z" fill="#00693D"/>
<path d="M539.396 243.048C539.061 242.89 538.679 242.863 538.326 242.972C537.972 243.081 537.672 243.319 537.484 243.638C537.296 243.957 537.235 244.335 537.311 244.697C537.388 245.06 537.597 245.38 537.898 245.596C538.233 245.754 538.615 245.781 538.969 245.672C539.322 245.562 539.622 245.325 539.81 245.006C539.998 244.687 540.059 244.309 539.983 243.947C539.906 243.584 539.697 243.264 539.396 243.048Z" fill="#00693D"/>
<path d="M542 243.384C541.664 243.211 541.274 243.172 540.91 243.276C540.546 243.381 540.236 243.62 540.043 243.945C539.85 244.271 539.788 244.658 539.871 245.027C539.954 245.396 540.174 245.72 540.488 245.932C540.824 246.106 541.214 246.144 541.578 246.04C541.942 245.936 542.252 245.696 542.445 245.371C542.638 245.045 542.699 244.658 542.617 244.289C542.534 243.92 542.313 243.596 542 243.384Z" fill="#00693D"/>
<path d="M537.576 263.6C537.982 265.084 546.158 274.8 552.612 272C555.006 270.978 554.11 263.138 554.11 263.138L556.672 249.446L539.2 239.156C539.2 239.156 537.408 262.928 537.576 263.6Z" fill="#D3766A"/>
<path d="M538.598 248.032C540.088 251.36 542.246 254.347 544.939 256.806C547.631 259.265 550.801 261.144 554.25 262.326L556.672 249.39L539.2 239.156C539.2 239.156 538.948 243.174 538.598 248.032Z" fill="#263238"/>
<path d="M569.3 227.522C573.416 249.922 560.438 254.976 555.594 255.858C551.198 256.656 536.12 258.826 529.708 236.93C523.296 215.034 532.438 206.004 542.392 203.638C552.346 201.272 565.184 205.066 569.3 227.522Z" fill="#D3766A"/>
<path d="M562.804 225.702C562.272 225.702 561.782 225.59 561.25 225.534C560.69 225.551 560.139 225.384 559.682 225.058C559.555 224.928 559.476 224.759 559.458 224.578C559.441 224.397 559.485 224.216 559.584 224.064C559.815 223.792 560.116 223.588 560.453 223.472C560.79 223.356 561.153 223.333 561.502 223.406C562.24 223.433 562.94 223.738 563.462 224.26C563.573 224.385 563.645 224.541 563.67 224.706C563.694 224.872 563.67 225.042 563.601 225.194C563.531 225.347 563.419 225.476 563.278 225.566C563.136 225.656 562.972 225.703 562.804 225.702Z" fill="#263238"/>
<path d="M547.432 227.452C547.94 227.321 548.44 227.162 548.93 226.976C549.468 226.871 549.959 226.596 550.33 226.192C550.426 226.042 550.468 225.863 550.45 225.685C550.433 225.508 550.356 225.341 550.232 225.212C549.949 224.99 549.612 224.847 549.255 224.797C548.898 224.748 548.535 224.795 548.202 224.932C547.492 225.117 546.874 225.555 546.466 226.164C546.377 226.312 546.333 226.484 546.342 226.657C546.351 226.83 546.411 226.996 546.514 227.134C546.618 227.273 546.761 227.377 546.925 227.434C547.088 227.49 547.265 227.497 547.432 227.452Z" fill="#263238"/>
<path d="M551.254 232.87C551.254 232.87 551.142 232.954 551.142 233.01C551.394 234.55 551.408 236.356 550.078 237.042C550.078 237.042 550.078 237.14 550.078 237.126C551.8 236.678 551.8 234.284 551.254 232.87Z" fill="#263238"/>
<path d="M549.672 231.4C547.166 231.512 547.586 236.51 549.91 236.412C552.234 236.314 551.8 231.4 549.672 231.4Z" fill="#263238"/>
<path d="M548.72 231.778C548.3 232.086 547.922 232.632 547.39 232.73C546.858 232.828 546.284 232.352 545.85 231.876C545.85 231.876 545.752 231.876 545.766 231.876C545.836 232.842 546.284 233.78 547.32 233.85C548.356 233.92 548.874 232.996 549.028 232.002C549 231.89 548.874 231.638 548.72 231.778Z" fill="#263238"/>
<path d="M560.382 231.666C560.382 231.666 560.508 231.666 560.508 231.792C560.508 233.346 560.928 235.11 562.37 235.516V235.614C560.634 235.502 560.2 233.15 560.382 231.666Z" fill="#263238"/>
<path d="M561.6 230C564.078 229.622 564.652 234.606 562.356 234.956C560.06 235.306 559.57 230.252 561.6 230Z" fill="#263238"/>
<path d="M562.72 230.14C563.14 230.364 563.588 230.798 564.12 230.77C564.652 230.742 565.016 230.168 565.296 229.608H565.38C565.52 230.56 565.38 231.582 564.428 231.876C563.476 232.17 562.902 231.4 562.566 230.476C562.44 230.35 562.552 230 562.72 230.14Z" fill="#263238"/>
<path d="M552.696 245.764C553.06 246.128 553.438 246.632 553.998 246.688C554.574 246.688 555.144 246.559 555.664 246.31C555.664 246.31 555.762 246.31 555.734 246.394C555.508 246.695 555.206 246.93 554.859 247.075C554.512 247.221 554.132 247.271 553.76 247.22C553.441 247.134 553.155 246.955 552.938 246.705C552.721 246.456 552.583 246.148 552.542 245.82C552.539 245.801 552.543 245.782 552.553 245.766C552.563 245.75 552.578 245.737 552.596 245.731C552.614 245.724 552.634 245.724 552.652 245.73C552.67 245.736 552.685 245.748 552.696 245.764Z" fill="#263238"/>
<path d="M558.912 239.52C559.135 240.644 559.298 241.78 559.402 242.922C559.402 243.02 559.15 243.09 558.786 243.118C557.854 243.332 556.882 243.288 555.973 242.99C555.065 242.691 554.256 242.149 553.634 241.424C553.55 241.326 553.634 241.2 553.788 241.27C555.232 242.148 556.92 242.54 558.604 242.39C558.674 242.082 557.722 238.47 557.904 238.442C558.755 238.479 559.598 238.629 560.41 238.89C559.64 234.06 558.114 229.398 557.414 224.582C557.414 224.414 557.638 224.344 557.694 224.498C559.504 229.455 560.813 234.581 561.6 239.8C561.6 240.402 559.36 239.688 558.912 239.52Z" fill="#263238"/>
<path d="M558.464 242.6C557.948 243.514 557.205 244.28 556.308 244.825C555.803 245.1 555.227 245.212 554.656 245.148C553.41 245.008 553.256 243.916 553.256 242.95C553.307 242.434 553.42 241.926 553.592 241.438C555.049 242.339 556.757 242.746 558.464 242.6Z" fill="#263238"/>
<path d="M556.308 244.812C555.803 245.086 555.227 245.198 554.656 245.134C553.41 244.994 553.256 243.902 553.256 242.936C553.904 242.843 554.564 242.979 555.121 243.322C555.679 243.665 556.099 244.192 556.308 244.812Z" fill="#FF9ABB"/>
<path d="M552.696 209.434C553.215 211.401 553.132 213.479 552.458 215.398C550.064 220.564 543.876 219.248 541.79 221.306C539.704 223.364 540.558 227.172 538.78 229.09C536.33 231.75 532.942 230.742 532.55 232.534C532.158 234.326 532.466 238.134 530.226 238.82C527.986 239.506 516.38 203.554 546.578 202.966C549.712 202.722 552.865 203.063 555.874 203.974C564.484 206.41 567.69 220.928 567.69 220.928C566.597 220.985 565.513 220.707 564.582 220.13C563.182 218.87 562.594 217.708 561.544 216.91C559.892 215.636 558.996 216.126 557.344 214.894C555.469 213.379 553.893 211.527 552.696 209.434Z" fill="#263238"/>
<path d="M552.234 207.796C552.706 209.264 553.006 210.781 553.13 212.318C553.334 213.814 553.131 215.337 552.542 216.728C551.778 217.993 550.586 218.941 549.182 219.402C547.782 219.92 546.242 220.088 544.73 220.704C543.956 221.021 543.279 221.538 542.77 222.202C542.338 222.898 542.052 223.674 541.93 224.484C541.775 225.976 541.218 227.398 540.32 228.6C539.828 229.153 539.221 229.592 538.541 229.884C537.862 230.177 537.126 230.317 536.386 230.294C534.902 230.294 533.264 229.902 531.808 230.574C533.306 230.028 534.832 230.574 536.372 230.658C537.176 230.717 537.982 230.598 538.735 230.31C539.487 230.022 540.167 229.572 540.726 228.992C541.753 227.752 542.396 226.238 542.574 224.638C542.694 223.917 542.955 223.227 543.344 222.608C543.781 222.052 544.362 221.626 545.024 221.376C546.424 220.788 547.936 220.592 549.406 219.976C550.163 219.695 550.871 219.299 551.506 218.8C552.167 218.318 552.697 217.678 553.046 216.938C553.62 215.44 553.77 213.812 553.48 212.234C553.232 210.713 552.814 209.224 552.234 207.796Z" fill="#263238"/>
<path d="M552.808 209.14C553.094 210.553 553.565 211.923 554.208 213.214C554.863 214.565 555.9 215.694 557.19 216.462C557.845 216.784 558.529 217.042 559.234 217.232C559.86 217.428 560.418 217.797 560.844 218.296C561.213 218.917 561.644 219.499 562.132 220.032C562.67 220.532 563.317 220.902 564.022 221.11C563.397 220.786 562.844 220.338 562.398 219.794C561.978 219.222 561.613 218.613 561.306 217.974C560.855 217.328 560.214 216.839 559.472 216.574C558.811 216.376 558.169 216.118 557.554 215.804C556.386 215.096 555.422 214.097 554.754 212.906C554.023 211.694 553.373 210.436 552.808 209.14Z" fill="#263238"/>
<path d="M534.258 237C534.258 237 528.294 230.672 525.354 232.912C522.414 235.152 527.636 244.812 531.598 245.652C532.098 245.795 532.622 245.835 533.138 245.771C533.654 245.706 534.152 245.538 534.602 245.277C535.052 245.015 535.444 244.666 535.755 244.249C536.067 243.832 536.291 243.357 536.414 242.852L534.258 237Z" fill="#D3766A"/>
<path d="M526.922 235.684C526.852 235.684 526.922 235.768 526.922 235.782C529.722 236.468 531.472 238.694 532.816 241.088C532.623 240.847 532.38 240.651 532.104 240.512C531.828 240.374 531.526 240.297 531.217 240.286C530.909 240.276 530.602 240.332 530.317 240.451C530.032 240.57 529.777 240.749 529.568 240.976C529.568 240.976 529.568 241.13 529.666 241.102C530.107 240.887 530.604 240.815 531.088 240.895C531.572 240.976 532.019 241.205 532.368 241.55C532.957 242.123 533.478 242.762 533.922 243.454C534.076 243.664 534.482 243.454 534.356 243.216C533.88 239.8 530.576 235.488 526.922 235.684Z" fill="#263238"/>
<path d="M563.168 271.02L548.566 309.982C548.006 311.116 548.482 312.138 549.644 312.264L570.322 314.588C570.959 314.61 571.59 314.452 572.142 314.133C572.694 313.814 573.145 313.346 573.444 312.782L588.046 273.82C588.212 273.615 588.317 273.368 588.349 273.106C588.38 272.844 588.337 272.579 588.225 272.34C588.112 272.102 587.934 271.9 587.712 271.758C587.49 271.616 587.232 271.54 586.968 271.538L566.276 269.2C565.639 269.179 565.009 269.339 564.459 269.661C563.909 269.983 563.461 270.454 563.168 271.02Z" fill="#37474F"/>
<path d="M565.618 271.286L551.016 310.234C550.85 310.439 550.745 310.686 550.713 310.948C550.682 311.21 550.725 311.475 550.837 311.714C550.95 311.952 551.128 312.154 551.35 312.296C551.572 312.438 551.83 312.514 552.094 312.516L572.8 314.84C573.436 314.862 574.065 314.705 574.614 314.385C575.164 314.066 575.613 313.597 575.908 313.034L590.51 274.072C591.07 272.938 590.594 271.916 589.432 271.79L568.74 269.466C568.101 269.444 567.468 269.603 566.916 269.925C566.364 270.247 565.913 270.719 565.618 271.286Z" fill="#455A64"/>
<path d="M571.092 273.75C571.047 274.099 570.9 274.427 570.668 274.693C570.437 274.958 570.132 275.149 569.792 275.241C569.452 275.332 569.092 275.321 568.758 275.208C568.425 275.095 568.132 274.886 567.918 274.607C567.703 274.327 567.577 273.991 567.554 273.639C567.531 273.288 567.613 272.938 567.79 272.633C567.966 272.328 568.229 272.083 568.546 271.928C568.862 271.773 569.217 271.715 569.566 271.762C569.797 271.791 570.02 271.866 570.222 271.982C570.424 272.098 570.601 272.253 570.743 272.438C570.885 272.623 570.989 272.834 571.049 273.059C571.109 273.284 571.123 273.519 571.092 273.75Z" fill="#263238"/>
<path d="M489.808 367.032C498.95 367.466 509.576 359.416 536.862 335.462C540.628 332.158 524.402 299.23 520.188 302.562C514.882 306.762 495.198 324.192 493.924 325.648C483.2 337.94 483.606 366.738 489.808 367.032Z" fill="#D3766A"/>
<path d="M510.696 313.818C510.696 313.818 517.962 301.4 523.786 296.052C529.997 290.654 537.424 286.84 545.43 284.936C554.068 282.864 576.384 283.802 577.238 290.284C578.008 296.136 555.244 294.022 555.244 294.022C555.244 294.022 578.806 292.356 578.428 299.622C578.05 306.888 551.8 302.8 551.8 302.8C551.8 302.8 576.048 301.624 574.48 309.016C573.304 314.616 549.28 312.362 549.28 312.362C549.28 312.362 570.126 311.494 569.16 317.29C568.096 323.702 545.808 323.016 545.808 323.016C540.866 337.338 532.662 342.14 526.404 344.856C524.892 345.556 510.696 313.818 510.696 313.818Z" fill="#D3766A"/>
<path d="M547.054 294.078C549.854 293.784 552.654 293.462 555.384 293.406C558.114 293.35 560.984 293.406 563.714 293.616C567.336 293.828 570.924 294.443 574.41 295.45C568.096 294.05 558.156 294.12 555.37 294.176C552.584 294.232 549.77 294.176 547.054 294.176V294.078Z" fill="#263238"/>
<path d="M547.054 304.116C550.596 303.892 554.054 303.528 557.652 303.458C561.25 303.388 564.554 303.64 568.082 303.808C568.348 303.808 568.264 303.962 567.984 303.962C564.456 303.962 561.18 304.172 557.638 304.186C554.096 304.2 550.568 304.06 547.054 304.186V304.116Z" fill="#263238"/>
<path d="M545.5 312.726C550.926 312.246 556.387 312.325 561.796 312.964C562.062 312.964 561.922 313.16 561.642 313.16C556.224 312.964 551.982 312.782 545.528 312.908C545.43 312.908 545.388 312.74 545.5 312.726Z" fill="#263238"/>
<path d="M485.79 347.334C486.117 340.778 487.993 334.392 491.264 328.7C497.466 320.608 507.322 313.216 514.896 306.37C517.187 302.315 520.14 298.672 523.632 295.59C527.118 292.434 531.21 290.019 535.658 288.492C531.36 290.273 527.429 292.837 524.066 296.052C520.673 299.28 517.785 302.998 515.498 307.084C508.05 313.972 498.264 321.322 491.908 329.162C488.581 334.717 486.494 340.926 485.79 347.362V347.334Z" fill="#263238"/>
<path d="M451.952 192.199C452.561 198.035 454.779 203.587 458.361 208.235C461.942 212.883 466.744 216.445 472.232 218.521C477.72 220.598 483.677 221.108 489.439 219.996C495.2 218.883 500.538 216.19 504.858 212.219L520.692 214.599L512.768 200.907C514.754 196.087 515.505 190.846 514.952 185.661C514.078 177.307 509.92 169.642 503.394 164.353C496.869 159.064 488.509 156.584 480.155 157.458C471.801 158.333 464.136 162.49 458.847 169.016C453.558 175.541 451.078 183.901 451.952 192.255V192.199Z" fill="white"/>
<path d="M461.43 166.033C466.694 160.906 473.564 157.748 480.883 157.091C488.202 156.434 495.524 158.318 501.617 162.426C507.71 166.534 512.203 172.615 514.338 179.647C516.473 186.678 516.122 194.231 513.342 201.033V200.487L521.224 214.208L521.812 215.229L520.664 215.048L504.83 212.612L505.208 212.5C500.808 216.487 495.383 219.168 489.542 220.242C488.096 220.51 486.631 220.66 485.16 220.69C483.695 220.767 482.226 220.739 480.764 220.605C477.842 220.327 474.973 219.644 472.238 218.576C469.505 217.543 466.932 216.129 464.594 214.375C463.421 213.519 462.308 212.583 461.262 211.576C460.235 210.538 459.276 209.434 458.392 208.272C453.645 202.083 451.337 194.366 451.904 186.588C452.472 178.809 455.877 171.509 461.472 166.075L461.43 166.033ZM458.434 208.16C460.185 210.49 462.287 212.535 464.664 214.222C466.992 215.961 469.563 217.348 472.294 218.338C475.018 219.347 477.868 219.973 480.764 220.2C482.205 220.298 483.65 220.298 485.09 220.2C486.535 220.134 487.972 219.957 489.388 219.668C495.072 218.528 500.324 215.822 504.55 211.856L504.704 211.716H504.928L520.776 213.942L520.216 214.768L512.236 201.104L512.096 200.852L512.208 200.558C513.964 196.183 514.724 191.472 514.434 186.768C514.122 182.056 512.748 177.476 510.416 173.37C508.043 169.279 504.809 165.754 500.938 163.038C497.031 160.34 492.558 158.573 487.862 157.872C481.659 156.918 475.313 157.85 469.646 160.548C463.98 163.247 459.255 167.586 456.086 173.003C452.916 178.419 451.448 184.664 451.872 190.926C452.296 197.187 454.592 203.177 458.462 208.118L458.434 208.16Z" fill="#263238"/>
<path d="M479.966 206.941L466.428 193.249L470.978 188.769L478.874 196.763L495.296 171.031L500.672 174.461L479.966 206.941Z" fill="#00693D"/>
<path d="M375.624 685.784H224.732L246.74 532.078H353.63L375.624 685.784Z" fill="#37474F"/>
<path d="M353.616 532.078L336.858 685.784H375.624L353.616 532.078Z" fill="#455A64"/>
<path d="M276.84 542.676L272.122 541.682C272.122 541.542 274.922 528.634 277.806 515.6C280.97 501.516 294.83 495.034 306.408 496.896C315.074 498.296 324.678 505.058 323.208 519.506C321.654 534.906 320.408 542.256 320.408 542.564L315.648 541.794C315.648 541.794 316.852 534.318 318.378 519.03C319.484 507.928 312.498 502.776 305.582 501.656C296.216 500.144 285.002 505.338 282.454 516.65C279.598 529.6 276.868 542.55 276.84 542.676Z" fill="#263238"/>
<path d="M338.902 684.608C341.996 682.396 345.216 680.408 348.422 678.35C351.628 676.292 354.904 674.43 358.222 672.554L358.67 672.288L359.09 672.596C361.638 674.514 364.186 676.432 366.664 678.448C369.142 680.464 371.634 682.452 374.014 684.594C371.214 682.942 368.61 681.178 365.978 679.372C363.346 677.566 360.728 675.746 358.152 673.87H359.006C355.744 675.788 352.426 677.636 349.094 679.47C345.762 681.304 342.36 683.026 338.902 684.608Z" fill="white"/>
<path d="M358.6 673.24C357.942 663.44 357.452 653.64 356.99 643.84C356.528 634.04 356.192 624.24 355.8 614.44C355.408 604.64 355.184 594.84 354.974 585.04L354.708 570.2C354.708 565.3 354.582 560.4 354.596 555.472C354.946 560.372 355.184 565.272 355.492 570.172L356.22 584.886C356.682 594.686 357.004 604.486 357.396 614.286C357.788 624.086 358.012 633.886 358.208 643.686C358.404 653.486 358.6 663.412 358.6 673.24Z" fill="white"/>
<path d="M280.886 542.2C280.889 543.469 280.515 544.711 279.811 545.767C279.108 546.824 278.106 547.648 276.934 548.135C275.762 548.622 274.472 548.75 273.227 548.503C271.981 548.256 270.838 547.645 269.94 546.748C269.042 545.85 268.431 544.706 268.185 543.461C267.938 542.216 268.066 540.926 268.553 539.754C269.04 538.581 269.864 537.58 270.92 536.877C271.977 536.173 273.219 535.799 274.488 535.802C276.184 535.805 277.809 536.481 279.008 537.68C280.207 538.879 280.882 540.504 280.886 542.2Z" fill="#263238"/>
<path d="M323.992 542.2C323.995 543.469 323.621 544.711 322.918 545.767C322.214 546.824 321.213 547.648 320.041 548.135C318.868 548.622 317.578 548.75 316.333 548.503C315.088 548.256 313.944 547.645 313.046 546.748C312.149 545.85 311.538 544.706 311.291 543.461C311.044 542.216 311.172 540.926 311.659 539.754C312.146 538.581 312.97 537.58 314.027 536.877C315.083 536.173 316.325 535.799 317.594 535.802C319.29 535.805 320.915 536.481 322.114 537.68C323.313 538.879 323.989 540.504 323.992 542.2Z" fill="#263238"/>
<path d="M298.344 685.784H167.094L186.232 552.084H279.206L298.344 685.784Z" fill="#00693D"/>
<path d="M279.206 552.084L264.618 685.784H298.344L279.206 552.084Z" fill="#00693D"/>
<path opacity="0.1" d="M279.206 552.084L264.618 685.784H298.344L279.206 552.084Z" fill="black"/>
<path d="M212.426 561.309L208.31 560.441C208.31 560.329 210.718 549.087 213.266 537.761C216.066 525.497 228.064 519.869 238.13 521.493C245.676 522.711 254.034 528.591 252.774 541.093C251.374 554.547 250.394 560.889 250.352 561.155L246.152 560.483C246.152 560.413 247.188 553.987 248.532 540.687C249.498 531.027 243.408 526.547 237.332 525.567C229.198 524.251 219.44 528.773 217.228 538.615C214.82 549.983 212.44 561.197 212.426 561.309Z" fill="#263238"/>
<path d="M266.396 684.762C269.098 682.844 271.884 681.08 274.684 679.33C277.484 677.58 280.284 675.9 283.196 674.276L283.588 674.052L283.938 674.318C286.164 675.984 288.376 677.65 290.532 679.4C292.688 681.15 294.858 682.886 296.93 684.748C294.55 683.348 292.226 681.78 289.93 680.212C287.634 678.644 285.366 677.048 283.126 675.424H283.882C281.082 677.09 278.156 678.7 275.244 680.268C272.332 681.836 269.406 683.39 266.396 684.762Z" fill="white"/>
<path d="M283.532 674.864C282.958 666.338 282.524 657.812 282.132 649.286C281.74 640.76 281.446 632.22 281.096 623.68C280.746 615.14 280.564 606.614 280.382 598.074L280.144 585.264C280.144 580.994 280.032 576.724 280.046 572.454C280.354 576.654 280.564 580.98 280.83 585.236L281.46 598.032C281.866 606.572 282.146 615.098 282.496 623.638C282.846 632.178 283.028 640.704 283.196 649.244C283.364 657.784 283.532 666.324 283.532 674.864Z" fill="white"/>
<path d="M215.94 560.875C215.94 561.983 215.612 563.066 214.996 563.987C214.381 564.908 213.507 565.625 212.483 566.049C211.46 566.473 210.334 566.584 209.248 566.368C208.161 566.152 207.164 565.618 206.38 564.835C205.597 564.052 205.064 563.054 204.848 561.968C204.632 560.882 204.743 559.756 205.167 558.732C205.59 557.709 206.308 556.835 207.229 556.219C208.15 555.604 209.233 555.275 210.34 555.275C211.825 555.275 213.25 555.865 214.3 556.916C215.35 557.966 215.94 559.39 215.94 560.875Z" fill="#263238"/>
<path d="M253.432 560.875C253.432 561.983 253.104 563.066 252.489 563.987C251.873 564.908 250.999 565.625 249.975 566.049C248.952 566.473 247.826 566.584 246.74 566.368C245.654 566.152 244.656 565.618 243.873 564.835C243.089 564.052 242.556 563.054 242.34 561.968C242.124 560.882 242.235 559.756 242.659 558.732C243.083 557.709 243.8 556.835 244.721 556.219C245.642 555.604 246.725 555.275 247.832 555.275C249.318 555.275 250.742 555.865 251.792 556.916C252.842 557.966 253.432 559.39 253.432 560.875Z" fill="#263238"/>
</svg>
